<svg width="14" height="14" viewBox="0 0 14 14" fill="none" xmlns="http://www.w3.org/2000/svg">
<path d="M7.00002 3.79163C7.38679 3.79163 7.75773 3.94527 8.03122 4.21876C8.30471 4.49225 8.45835 4.86319 8.45835 5.24996C8.45835 5.44147 8.42063 5.63111 8.34734 5.80804C8.27406 5.98497 8.16664 6.14574 8.03122 6.28116C7.8958 6.41658 7.73503 6.524 7.5581 6.59728C7.38117 6.67057 7.19153 6.70829 7.00002 6.70829C6.61325 6.70829 6.24231 6.55465 5.96882 6.28116C5.69533 6.00767 5.54169 5.63673 5.54169 5.24996C5.54169 4.86319 5.69533 4.49225 5.96882 4.21876C6.24231 3.94527 6.61325 3.79163 7.00002 3.79163ZM7.00002 1.16663C8.08299 1.16663 9.1216 1.59683 9.88737 2.36261C10.6531 3.12838 11.0834 4.16699 11.0834 5.24996C11.0834 8.31246 7.00002 12.8333 7.00002 12.8333C7.00002 12.8333 2.91669 8.31246 2.91669 5.24996C2.91669 4.16699 3.34689 3.12838 4.11267 2.36261C4.87844 1.59683 5.91705 1.16663 7.00002 1.16663ZM7.00002 2.33329C6.22647 2.33329 5.48461 2.64058 4.93763 3.18756C4.39064 3.73455 4.08335 4.47641 4.08335 5.24996C4.08335 5.83329 4.08335 6.99996 7.00002 10.9141C9.91669 6.99996 9.91669 5.83329 9.91669 5.24996C9.91669 4.47641 9.6094 3.73455 9.06242 3.18756C8.51543 2.64058 7.77357 2.33329 7.00002 2.33329Z" fill="#7C7C7C"/>
</svg>
