<svg width="14" height="14" viewBox="0 0 14 14" fill="none" xmlns="http://www.w3.org/2000/svg">
<path d="M4.08333 8.75H5.25C5.25 9.38 6.04917 9.91667 7 9.91667C7.95083 9.91667 8.75 9.38 8.75 8.75C8.75 8.10833 8.14333 7.875 6.86 7.56583C5.62333 7.25667 4.08333 6.87167 4.08333 5.25C4.08333 4.20583 4.94083 3.31917 6.125 3.02167V1.75H7.875V3.02167C9.05917 3.31917 9.91667 4.20583 9.91667 5.25H8.75C8.75 4.62 7.95083 4.08333 7 4.08333C6.04917 4.08333 5.25 4.62 5.25 5.25C5.25 5.89167 5.85667 6.125 7.14 6.43417C8.37667 6.74333 9.91667 7.12833 9.91667 8.75C9.91667 9.79417 9.05917 10.6808 7.875 10.9783V12.25H6.125V10.9783C4.94083 10.6808 4.08333 9.79417 4.08333 8.75Z" fill="#7C7C7C"/>
</svg>
