<svg width="14" height="14" viewBox="0 0 14 14" fill="none" xmlns="http://www.w3.org/2000/svg">
<path d="M11.6667 4.08333H9.33335V2.91667L8.16669 1.75H5.83335L4.66669 2.91667V4.08333H2.33335C1.69169 4.08333 1.16669 4.60833 1.16669 5.25V8.16667C1.16669 8.60417 1.40002 8.97167 1.75002 9.17583V11.0833C1.75002 11.7308 2.26919 12.25 2.91669 12.25H11.0834C11.7309 12.25 12.25 11.7308 12.25 11.0833V9.17C12.5942 8.96583 12.8334 8.5925 12.8334 8.16667V5.25C12.8334 4.60833 12.3084 4.08333 11.6667 4.08333ZM5.83335 2.91667H8.16669V4.08333H5.83335V2.91667ZM2.33335 5.25H11.6667V8.16667H8.75002V6.41667H5.25002V8.16667H2.33335V5.25ZM7.58335 8.75H6.41669V7.58333H7.58335V8.75ZM11.0834 11.0833H2.91669V9.33333H5.25002V9.91667H8.75002V9.33333H11.0834V11.0833Z" fill="#7C7C7C"/>
</svg>
