<svg width="16" height="16" viewBox="0 0 16 16" fill="none" xmlns="http://www.w3.org/2000/svg">
<g clip-path="url(#clip0_722_2703)">
<path fill-rule="evenodd" clip-rule="evenodd" d="M10.6636 9.78431H10.3347C10.1824 9.78828 10.0364 9.84681 9.92331 9.94851L9.79093 10.0809L9.11024 9.02975C8.98013 8.84111 8.79945 8.69339 8.58866 8.60362C8.06651 8.3502 6.73469 8.38031 6.58866 8.3843H6.51082C6.36024 8.38032 5.02791 8.34964 4.50631 8.60362C4.29325 8.69509 4.11143 8.8451 3.98017 9.03601L3.30347 10.0809L3.17108 9.94851C3.05802 9.8468 2.912 9.78828 2.75972 9.78431H2.43075C2.29439 9.78431 2.18359 9.89453 2.18359 10.0315C2.18359 10.1678 2.29439 10.2786 2.43075 10.2786H2.92563C2.98074 10.2792 3.03415 10.2979 3.07734 10.332C2.74666 10.5315 2.53586 10.8815 2.5137 11.2667V13.4888C2.5137 13.6706 2.66086 13.8178 2.84211 13.8183H3.66541C3.75291 13.8183 3.837 13.7837 3.89837 13.7217C3.9603 13.6604 3.99496 13.5763 3.99496 13.4888V13.1598H9.09954V13.4894V13.4888C9.09954 13.5763 9.1342 13.6604 9.19613 13.7217C9.25807 13.7837 9.34159 13.8183 9.42909 13.8183H10.2524C10.3399 13.8183 10.4234 13.7837 10.4854 13.7217C10.5467 13.6604 10.5814 13.5763 10.5814 13.4888V11.2661C10.5592 10.8809 10.3484 10.5309 10.0177 10.3314C10.0609 10.2973 10.1149 10.2786 10.17 10.278H10.6643C10.7319 10.2814 10.7979 10.2564 10.8467 10.2098C10.8956 10.1633 10.9234 10.0985 10.9234 10.0303C10.9234 9.96268 10.8956 9.89848 10.8461 9.85188C10.7973 9.80529 10.7313 9.7809 10.6636 9.78431ZM3.94598 11.9196C3.75904 12.0491 3.50734 12.0338 3.33689 11.8832C3.16643 11.7321 3.12097 11.4843 3.22723 11.2826C3.33291 11.0815 3.56245 10.9781 3.78347 11.0326C4.00449 11.0872 4.1596 11.2855 4.1596 11.5133C4.1596 11.6753 4.08007 11.8275 3.94598 11.9196ZM3.7153 10.2781C3.68576 10.2781 3.65905 10.2622 3.64484 10.2366C3.63121 10.2111 3.63234 10.1798 3.64825 10.1548L4.25222 9.22073V9.2213C4.34484 9.08494 4.47324 8.97755 4.62325 8.91108L4.64484 8.90198C5.01927 8.71505 6.1119 8.70198 6.5068 8.71278H6.5943C6.98351 8.70198 8.0762 8.71391 8.45118 8.90198L8.47163 8.91051H8.47106C8.61935 8.97585 8.74719 9.08097 8.83924 9.21506L9.44776 10.1554H9.44719C9.4631 10.1798 9.46424 10.2111 9.4506 10.2366C9.4364 10.2622 9.40969 10.2781 9.38015 10.2781L3.7153 10.2781ZM9.85625 11.76C9.73238 11.9742 9.46874 12.0634 9.23976 11.968C9.01136 11.8731 8.88862 11.6231 8.95339 11.3845C9.0176 11.1453 9.24884 10.9907 9.49431 11.0237C9.73976 11.056 9.92329 11.2651 9.92329 11.5129C9.92272 11.5998 9.9 11.685 9.85625 11.76ZM13.9489 3.96001C13.9404 3.9282 13.9279 3.89808 13.9125 3.86967C13.8949 3.83558 13.8728 3.80433 13.8472 3.77592C13.8438 3.77251 13.8415 3.76797 13.8381 3.76456H13.8375C13.7551 3.68331 13.6444 3.63729 13.529 3.63672H10.329C10.0881 3.63672 9.89265 3.83218 9.89265 4.07308V7.27308C9.89322 7.34695 9.91254 7.4191 9.9489 7.48331C10.0239 7.62308 10.1705 7.71001 10.329 7.70945H11.6381V13.8185H12.2199V7.70945H13.529C13.7699 7.70945 13.9654 7.51398 13.9654 7.27308V4.07308C13.9648 4.03501 13.9591 3.99638 13.9489 3.96001ZM13.7472 7.27303C13.7472 7.39349 13.6495 7.49121 13.529 7.49121H10.329C10.2086 7.49121 10.1108 7.39349 10.1108 7.27303V4.07303C10.1108 3.95258 10.2086 3.85485 10.329 3.85485H13.529C13.6495 3.85485 13.7472 3.95258 13.7472 4.07303V7.27303ZM12.2268 5.07012H11.7006V5.51274H12.2268C12.3444 5.50649 12.4359 5.40933 12.4359 5.29172C12.4359 5.17411 12.3444 5.07693 12.2268 5.07012ZM13.529 4.00023H10.329C10.2887 4.00023 10.2563 4.03262 10.2563 4.07296V7.27296C10.2563 7.29228 10.2637 7.31103 10.2773 7.32466C10.291 7.3383 10.3097 7.34569 10.329 7.34569H13.529C13.5483 7.34569 13.5671 7.3383 13.5807 7.32466C13.5944 7.31103 13.6018 7.29228 13.6018 7.27296V4.07296C13.6018 4.05364 13.5944 4.03489 13.5807 4.02125C13.5671 4.00762 13.5483 4.00023 13.529 4.00023ZM12.2268 5.92925H11.7006V6.69118H11.2847V4.65482H12.2268C12.579 4.65482 12.8643 4.94004 12.8643 5.29232C12.8643 5.64403 12.579 5.92925 12.2268 5.92925Z" fill="#656B7C"/>
</g>
<defs>
<clipPath id="clip0_722_2703">
<rect width="16" height="16" fill="white"/>
</clipPath>
</defs>
</svg>
