<svg width="16" height="16" viewBox="0 0 16 16" fill="none" xmlns="http://www.w3.org/2000/svg">
<g clip-path="url(#clip0_722_2711)">
<path d="M7.19922 4H4.95922C4.49244 4 4.04477 4.18543 3.71471 4.51549C3.38465 4.84556 3.19922 5.29322 3.19922 5.76V11.04C3.19922 11.2711 3.24474 11.5 3.33319 11.7135C3.42164 11.9271 3.55128 12.1211 3.71471 12.2845C3.87814 12.4479 4.07216 12.5776 4.2857 12.666C4.49923 12.7545 4.72809 12.8 4.95922 12.8H10.2392C10.4703 12.8 10.6992 12.7545 10.9127 12.666C11.1263 12.5776 11.3203 12.4479 11.4837 12.2845C11.6472 12.1211 11.7768 11.9271 11.8652 11.7135C11.9537 11.5 11.9992 11.2711 11.9992 11.04V8.8C11.9992 8.6727 11.9486 8.55061 11.8586 8.46059C11.7686 8.37057 11.6465 8.32 11.5192 8.32C11.3919 8.32 11.2698 8.37057 11.1798 8.46059C11.0898 8.55061 11.0392 8.6727 11.0392 8.8V11.04C11.0392 11.2522 10.9549 11.4557 10.8049 11.6057C10.6549 11.7557 10.4514 11.84 10.2392 11.84H4.95922C4.74705 11.84 4.54356 11.7557 4.39353 11.6057C4.2435 11.4557 4.15922 11.2522 4.15922 11.04V5.76C4.15922 5.54783 4.2435 5.34434 4.39353 5.19431C4.54356 5.04429 4.74705 4.96 4.95922 4.96H7.19922C7.32652 4.96 7.44861 4.90943 7.53863 4.81941C7.62865 4.72939 7.67922 4.6073 7.67922 4.48C7.67922 4.3527 7.62865 4.23061 7.53863 4.14059C7.44861 4.05057 7.32652 4 7.19922 4Z" fill="#656B7C"/>
<path d="M6.72172 7.2274C6.7248 7.1045 6.68243 6.98478 6.60271 6.89119C6.52299 6.7976 6.41154 6.73671 6.28972 6.7202H6.24172C6.12331 6.72091 6.00934 6.76535 5.92172 6.845C5.8717 6.88973 5.83162 6.94446 5.80406 7.00564C5.7765 7.06682 5.76208 7.1331 5.76172 7.2002V9.1202C5.76172 9.41724 5.87972 9.70212 6.08976 9.91216C6.2998 10.1222 6.58468 10.2402 6.88172 10.2402H8.77452C8.89742 10.2433 9.01714 10.2009 9.11073 10.1212C9.20432 10.0415 9.26521 9.93003 9.28172 9.8082C9.28845 9.74125 9.28103 9.67364 9.25994 9.60974C9.23885 9.54585 9.20456 9.4871 9.1593 9.43731C9.11404 9.38753 9.05881 9.34781 8.99721 9.32074C8.93561 9.29368 8.869 9.27986 8.80172 9.2802H7.40012L11.8417 4.8386V6.2114C11.8382 6.33457 11.8804 6.45468 11.9602 6.54862C12.0399 6.64255 12.1516 6.70366 12.2737 6.7202C12.3404 6.7262 12.4075 6.7182 12.4709 6.69671C12.5343 6.67521 12.5925 6.64071 12.6417 6.5954C12.6917 6.55067 12.7318 6.49594 12.7594 6.43476C12.7869 6.37358 12.8014 6.3073 12.8017 6.2402V4.3202C12.8017 4.02316 12.6837 3.73828 12.4737 3.52824C12.2636 3.3182 11.9788 3.2002 11.6817 3.2002H9.76172C9.69443 3.19986 9.62783 3.21368 9.56623 3.24074C9.50463 3.26781 9.4494 3.30752 9.40414 3.35731C9.35888 3.4071 9.32459 3.46585 9.3035 3.52974C9.28241 3.59364 9.27499 3.66125 9.28172 3.7282C9.29823 3.85003 9.35911 3.96148 9.45271 4.04119C9.5463 4.12091 9.66602 4.16329 9.78892 4.1602H11.1617L6.72172 8.6018V7.2274Z" fill="#656B7C"/>
</g>
<defs>
<clipPath id="clip0_722_2711">
<rect width="16" height="16" fill="white"/>
</clipPath>
</defs>
</svg>
