<svg width="16" height="16" viewBox="0 0 16 16" fill="none" xmlns="http://www.w3.org/2000/svg">
<g clip-path="url(#clip0_722_2695)">
<path d="M6.81257 3.23341L2.8642 13.7777C2.64033 13.5345 2.5 13.2129 2.5 12.8573V4.59703C2.5 3.84533 3.11193 3.2334 3.86364 3.2334L6.81257 3.23341ZM12.1387 3.23341H9.18988L13.1382 13.7777C13.3621 13.5345 13.5024 13.2129 13.5024 12.8573V4.59703C13.5024 3.84533 12.8904 3.23341 12.1387 3.23341ZM8.2194 3.23341L12.3267 14.2021C12.2648 14.2107 12.2035 14.2209 12.1392 14.2209H3.86361C3.7994 14.2209 3.73804 14.2107 3.6761 14.2021L7.78287 3.23341H8.2194ZM7.54327 10.0181C7.54327 10.2693 7.74668 10.4727 7.99782 10.4727C8.24896 10.4727 8.45236 10.2693 8.45236 10.0181V8.23298C8.45236 7.98183 8.24896 7.77843 7.99782 7.77843C7.74668 7.77843 7.54327 7.98183 7.54327 8.23298V10.0181ZM8.45577 11.3341C8.45577 11.0829 8.25236 10.8795 8.00122 10.8795C7.75008 10.8795 7.54668 11.0829 7.54668 11.3341V13.1192C7.54668 13.3704 7.75008 13.5738 8.00122 13.5738C8.25236 13.5738 8.45577 13.3704 8.45577 13.1192V11.3341ZM7.99782 5.36082C7.74668 5.36082 7.54327 5.56422 7.54327 5.81536V6.9824C7.54327 7.23354 7.74668 7.43695 7.99782 7.43695C8.24896 7.43695 8.45236 7.23354 8.45236 6.9824V5.81536C8.45236 5.56422 8.24896 5.36082 7.99782 5.36082Z" fill="#656B7C"/>
</g>
<defs>
<clipPath id="clip0_722_2695">
<rect width="16" height="16" fill="white"/>
</clipPath>
</defs>
</svg>
