<?xml version="1.0" encoding="utf-8"?>
<!-- Generator: Adobe Illustrator 27.2.0, SVG Export Plug-In . SVG Version: 6.00 Build 0)  -->
<svg version="1.1" id="Layer_1" xmlns="http://www.w3.org/2000/svg" xmlns:xlink="http://www.w3.org/1999/xlink" x="0px" y="0px"
	 viewBox="0 0 42.2 42.1" style="enable-background:new 0 0 42.2 42.1;" xml:space="preserve">
<style type="text/css">
	.st0{fill:#BED630;}
	.st1{display:none;fill:#678442;}
</style>
<g>
	<path class="st0" d="M37,11.5L37,11.5c-0.1-0.2-0.1-0.4-0.2-0.5c-0.6-0.6-1.1-1.4-1.7-2c-0.5-0.6-0.9-1.2-1-1.9
		c-0.2-0.6-0.2-1.1-0.7-1.5c-0.1-0.1-0.1-0.2-0.1-0.3c-0.1-0.5-0.3-0.5-0.6-0.5c0-0.1-0.1-0.1-0.1-0.2c-0.1-0.2-0.2-0.4-0.3-0.6
		c-0.1-0.2-0.2-0.3-0.3-0.5c-0.1-0.2-0.3-0.3-0.4-0.5c-0.3-0.3-0.5-0.5-0.9-0.7c-0.7-0.6-1.5-0.9-2.2-1.2C28.2,1.1,28,1,27.8,1
		c-0.1,0-0.3,0-0.3,0.1c0,0.2,0,0.2,0.2,0.2c0.1,0.1,0.3,0.2,0.4,0.2c0.2,0.1,0.3,0.2,0.5,0.3c0.3,0.3,0.7,0.6,0.9,0.9
		c0.2,0.2,0.3,0.3,0.4,0.5c0.1,0.2,0.2,0.3,0.3,0.5c-0.3-0.2-0.5-0.5-0.9-0.8c-0.3-0.2-0.6-0.4-0.9-0.6c-0.3-0.2-0.8-0.3-1.1-0.5
		c-0.4-0.1-0.8-0.2-1.2-0.3c-0.3-0.1-0.4-0.1-0.7-0.2c-0.3-0.1-0.4-0.2-0.6,0c-0.2,0.2,0.2,0.3,0.3,0.4c0.2,0.1,0.3,0.1,0.5,0.2
		C26,2,26.3,2,26.4,2.1c0.3,0.1,0.4,0.2,0.7,0.3c0.2,0.1,0.3,0.2,0.5,0.4c0.2,0.1,0.3,0.2,0.4,0.4c0.3,0.2,0.6,0.6,0.8,0.9
		s0.3,0.6,0.5,1c-0.3,0.2-0.7,0.3-0.9,0.5c-0.5,0.3-0.9,0.7-1.4,1c-0.2,0.2-0.3,0.3-0.3,0.5c-0.3,0.7-0.4,1.4-1,2
		c-0.3,0.3-0.7,0.7-1,1.1c-0.1,0.1-0.2,0.2-0.2,0.4c0,0.6,0,1.3,0,1.9c0,0.2-0.1,0.4-0.3,0.4c-0.9,0.2-1.5,0.8-1.8,1.5v0.1
		c-0.1,0.1-0.2,0.2-0.3,0.2c-0.4,0.2-0.9,0.3-1.3,0.6c-1.3,0.7-2.6,1.4-3.9,2.2c-0.1,0.1-0.3,0.2-0.3,0.2c-1.5,0.5-2.9,1-4.4,1.4
		c-1.2,0.4-2.5,0.6-3.5,1.4c-0.3,0.2-0.6,0.4-0.8,0.6c-0.3,0.6-0.8,1-1.4,1.4c-0.3,0.2-0.4,0.3-0.6,0.5c-0.1,0.1-0.2,0.2-0.3,0.3
		c-0.1,0.6-0.5,1.2-0.9,1.8c-0.1,0.2-0.2,0.3-0.2,0.6c-0.1,0.2,0,0.6-0.1,0.9c-0.1,0.4-0.1,0.8,0.1,1.2c0.2,0.6,0.4,1.1,0.5,1.8
		c0.1,0.4,0.2,0.8,0.2,1.3c0.2-0.6,0.4-1,0.6-1.6c0.3,0.2,0.4,0.5,0.6,0.7c0.4,0.7,0.3,1.4,0.2,2.2c-0.1,0.5-0.3,1-0.3,1.5
		c-0.1,0.7,0.2,1.4,0.3,2c0,0.2,0.1,0.3,0.3,0.4c0.5,0.6,1,1.1,1.5,1.7c0.7,0.7,1.3,1.4,1.7,2.2c0.2,0.2,0.3,0.6,0.4,0.8
		c0.1,0.2,0.2,0.2,0.3,0.3c0.4,0.2,0.7,0.5,0.9,1l1-2.2c-0.5-0.5-1.2-0.8-1.5-1.5c0,0,0-0.1-0.1-0.1c-0.5-0.8-0.4-1.7,0-2.5
		c0.3-0.5,0.4-1,0.7-1.5c0,0,0,0,0.1,0c0,0.2,0.1,0.5,0.1,0.7c0.1,0.7,0.2,1.4,0.3,2.2c0.2,0.6,0.4,1,0.6,1.6c0.1,0.2,0.2,0.4,0,0.6
		c-0.1,0.1-0.1,0.1-0.1,0.2l4.3-0.5l2.7,0.2l2.1,2.8c0-0.6-0.3-1-0.8-1.6c-0.1-0.1-0.1-0.1-0.1-0.1s0-0.1,0-0.2c0,0-0.1-0.3-0.1-0.6
		c0-0.2-0.1-0.4,0.1-0.6c0.4-0.6,0.5-0.9,0.5-1c0.5-1.4,1-2.7,1.5-4.1c0.1-0.2,0.2-0.2,0.3-0.3c0.4-0.5,0.9-1,1-1.6
		c0.1-0.8,0.5-1.5,1-2.2c0.1-0.1,0.2-0.2,0.3-0.2c0.7-0.2,1-0.7,1.1-1.4c0-0.2,0.1-0.2,0.2-0.4c0.3-1,0.9-2.1,0.9-3.3
		c0.1-1.4,1.5-2.4,1.9-3.8c0.2-0.8-0.3-1.8-0.2-2.5c0.3-1,0.7-2.1,0.9-3.1c0.1-0.2,0.1-0.4,0-0.6c0-0.3-0.1-0.7-0.2-1
		c-0.2-0.5,0.1-0.9,0.3-1.4c0.4,0.2,0.8,0.3,1.1,0.6c0.6,0.4,1.1,0.4,1.8,0.2c0.2-0.1,0.3,0,0.4,0.1c0.3,0.2,1,0.2,1.5,0.1
		C36.8,12.8,37.2,12.2,37,11.5L37,11.5z M18.3,33.9c-0.8,1.3-1.4,2.6-1.8,4c-0.2,0.4-0.5,0.7-0.8,1c-0.3-0.2-0.5-0.6-0.6-1
		c-0.1-1-0.2-1.8-0.3-2.8c0-0.8,0-1.7,0-2.5c0-0.1,0.1-0.2,0.1-0.3c0.3-0.6,0.6-1.1,0.9-1.7c0-0.1,0.2-0.2,0.2-0.2
		c0.9-0.1,2-0.2,2.9-0.3c0.1,0,0.1,0,0.2,0c0.1,0.5,0.3,1-0.1,1.4c-0.4,0.6-0.5,1.2-0.6,1.8C18.3,33.7,18.3,33.8,18.3,33.9z
		 M23.2,29.5c-0.5,1.6-0.9,3.3-1.5,4.9c0,0.1-0.1,0.2-0.2,0.3c-0.6,0.9-1,1.8-1.5,2.8c0,0.1-0.4,1.1-0.4,1.2
		c-0.2-0.2-0.7-0.6-0.8-0.8c-0.2-0.2-0.1-0.8,0-1.1c0-0.2,0.3-0.5,0.4-0.6c0.3-0.6,0.4-1.3,0.8-1.9c0.2-0.4,0.5-0.7,0.8-1
		c0.1-0.2,0.3-0.4,0.3-0.6c0.3-1,0.5-2.1,0.8-3.1c0.1-0.2,0.2-0.3,0.3-0.3c0.3,0,0.7-0.1,1-0.2C23.3,29.2,23.3,29.4,23.2,29.5
		L23.2,29.5z"/>
</g>
<path class="st1" d="M-40,9.5c-0.1-0.3-0.2-0.7-0.4-0.9c-0.2-0.3-0.4-0.5-0.7-0.7c-0.3-0.2-0.5-0.3-0.9-0.4
	c-0.3-0.1-0.7-0.1-1.1-0.1c-0.7,0-1.4,0.2-2,0.6c-0.6,0.4-1,0.9-1.3,1.6c-0.3,0.7-0.5,1.6-0.5,2.6s0.2,1.9,0.5,2.6s0.7,1.3,1.3,1.6
	c0.6,0.4,1.2,0.6,2,0.6c0.7,0,1.3-0.1,1.8-0.4s0.9-0.6,1.1-1.1c0.3-0.5,0.4-1,0.4-1.6l0.6,0.1h-3.6v-2.3h6.1v1.8
	c0,1.3-0.3,2.4-0.8,3.3c-0.5,0.9-1.3,1.6-2.2,2.1c-0.9,0.5-2,0.7-3.3,0.7c-1.4,0-2.6-0.3-3.6-0.9s-1.8-1.5-2.4-2.6
	c-0.6-1.2-0.9-2.5-0.9-4c0-1.2,0.2-2.2,0.5-3.2c0.3-0.9,0.8-1.7,1.4-2.4c0.6-0.6,1.3-1.1,2.2-1.5c0.9-0.2,1.8-0.4,2.7-0.4
	c0.8,0,1.6,0.1,2.3,0.4c0.7,0.2,1.3,0.6,1.9,1c0.6,0.4,1,1,1.4,1.6c0.4,0.6,0.6,1.3,0.7,2L-40,9.5L-40,9.5z M-34.5,19.3V8.4h2.9v1.9
	h0.1c0.2-0.7,0.5-1.2,1-1.5c0.5-0.4,1-0.5,1.6-0.5c0.2,0,0.3,0,0.5,0s0.3,0,0.5,0.1v2.7c-0.1,0-0.3-0.1-0.6-0.1c-0.3,0-0.5,0-0.7,0
	c-0.4,0-0.8,0.1-1.2,0.3c-0.3,0.2-0.6,0.5-0.8,0.8c-0.2,0.3-0.3,0.7-0.3,1.2v6.2h-3V19.3z M-21.8,19.6c-1.1,0-2.1-0.2-2.9-0.7
	s-1.4-1.1-1.9-1.9c-0.4-0.8-0.7-1.8-0.7-3c0-1.1,0.2-2.1,0.7-3c0.4-0.8,1-1.5,1.8-2s1.7-0.7,2.8-0.7c0.7,0,1.4,0.1,2,0.3
	s1.2,0.6,1.6,1c0.5,0.5,0.8,1,1.1,1.7s0.4,1.5,0.4,2.4v0.8h-9.2v-1.9h6.4c0-0.4-0.1-0.8-0.3-1.2c-0.2-0.3-0.5-0.6-0.8-0.8
	s-0.7-0.3-1.2-0.3s-0.9,0.1-1.2,0.3c-0.4,0.2-0.6,0.5-0.8,0.8c-0.2,0.4-0.3,0.7-0.3,1.2v1.8c0,0.5,0.1,1,0.3,1.4
	c0.2,0.4,0.5,0.7,0.9,0.9c0.4,0.2,0.8,0.3,1.3,0.3c0.3,0,0.6,0,0.9-0.1s0.5-0.2,0.7-0.4c0.2-0.2,0.4-0.4,0.5-0.7l2.8,0.2
	c-0.1,0.7-0.4,1.3-0.9,1.8c-0.4,0.5-1,0.9-1.7,1.2C-20.1,19.4-20.9,19.6-21.8,19.6z M-9.9,19.6c-1.1,0-2.1-0.2-2.9-0.7
	c-0.8-0.5-1.4-1.1-1.9-1.9c-0.4-0.8-0.7-1.8-0.7-3c0-1.1,0.2-2.1,0.7-3c0.4-0.8,1-1.5,1.8-2s1.7-0.7,2.8-0.7c0.7,0,1.4,0.1,2,0.3
	s1.2,0.6,1.6,1c0.5,0.5,0.8,1,1.1,1.7S-5,12.8-5,13.7v0.8h-9.2v-1.9h6.4c0-0.4-0.1-0.8-0.3-1.2c-0.2-0.3-0.5-0.6-0.8-0.8
	s-0.7-0.3-1.2-0.3s-0.9,0.1-1.2,0.3c-0.4,0.2-0.6,0.5-0.8,0.8c-0.2,0.4-0.3,0.7-0.3,1.2v1.8c0,0.5,0.1,1,0.3,1.4
	c0.2,0.4,0.5,0.7,0.9,0.9c0.4,0.2,0.8,0.3,1.3,0.3c0.3,0,0.6,0,0.9-0.1c0.3-0.1,0.5-0.2,0.7-0.4c0.2-0.2,0.4-0.4,0.5-0.7L-5,16
	c-0.1,0.7-0.4,1.3-0.9,1.8c-0.4,0.5-1,0.9-1.7,1.2C-8.2,19.4-9,19.6-9.9,19.6z M0.1,13v6.3h-3V8.4H0v1.9h0.1
	c0.2-0.6,0.6-1.1,1.2-1.5c0.6-0.4,1.3-0.6,2.1-0.6s1.4,0.2,2,0.5s1,0.8,1.3,1.4c0.3,0.6,0.5,1.3,0.5,2.2v6.9h-3v-6.3
	c0-0.7-0.2-1.2-0.5-1.6s-0.8-0.6-1.4-0.6c-0.4,0-0.8,0.1-1.1,0.3c-0.3,0.2-0.5,0.4-0.7,0.8C0.2,12.2,0.1,12.6,0.1,13z M23.9,9.5
	c-0.1-0.3-0.2-0.7-0.4-0.9c-0.2-0.3-0.4-0.5-0.7-0.7c-0.3-0.2-0.5-0.3-0.9-0.4c-0.3-0.1-0.7-0.1-1.1-0.1c-0.7,0-1.4,0.2-2,0.6
	c-0.6,0.4-1,0.9-1.3,1.6c-0.3,0.7-0.5,1.6-0.5,2.6s0.2,1.9,0.5,2.6s0.7,1.3,1.3,1.6c0.6,0.4,1.2,0.6,2,0.6c0.7,0,1.3-0.1,1.8-0.4
	s0.9-0.6,1.1-1.1c0.3-0.5,0.4-1,0.4-1.6l0.6,0.1h-3.8v-2.3h6.2v1.8c0,1.3-0.3,2.4-0.8,3.3c-0.5,0.9-1.3,1.6-2.2,2.1
	c-0.9,0.5-2,0.7-3.3,0.7c-1.4,0-2.6-0.3-3.6-0.9s-1.8-1.5-2.4-2.6s-0.9-2.4-0.9-4c0-1.2,0.2-2.2,0.5-3.2c0.3-0.9,0.8-1.7,1.4-2.4
	C16.4,5.9,17.1,5.4,18,5c0.8-0.3,1.7-0.5,2.7-0.5c0.8,0,1.6,0.1,2.3,0.4c0.7,0.2,1.3,0.6,1.9,1s1,1,1.4,1.6s0.6,1.3,0.7,2
	C27,9.5,23.9,9.5,23.9,9.5z M34.3,19.6c-1.1,0-2.1-0.2-2.9-0.7c-0.8-0.5-1.4-1.1-1.9-2c-0.4-0.8-0.7-1.8-0.7-2.9s0.2-2.1,0.7-3
	c0.4-0.8,1.1-1.5,1.9-2c0.8-0.5,1.8-0.7,2.9-0.7s2.1,0.2,2.9,0.7s1.4,1.1,1.9,2c0.4,0.8,0.7,1.8,0.7,3c0,1.1-0.2,2.1-0.7,2.9
	c-0.4,0.8-1.1,1.5-1.9,2C36.4,19.3,35.4,19.6,34.3,19.6z M34.3,17.2c0.5,0,0.9-0.1,1.3-0.4c0.3-0.3,0.6-0.7,0.8-1.2
	c0.2-0.5,0.3-1.1,0.3-1.7s-0.1-1.2-0.3-1.7c-0.2-0.5-0.4-0.9-0.8-1.2c-0.3-0.3-0.8-0.4-1.3-0.4S33.4,10.7,33,11
	c-0.3,0.3-0.6,0.7-0.8,1.2c-0.2,0.5-0.3,1.1-0.3,1.7s0.1,1.2,0.3,1.7c0.2,0.5,0.4,0.9,0.8,1.2C33.4,17.1,33.8,17.2,34.3,17.2z
	 M44.8,19.5c-0.7,0-1.3-0.1-1.9-0.4c-0.5-0.2-1-0.6-1.3-1.1s-0.5-1.1-0.5-1.8c0-0.6,0.1-1.1,0.3-1.5c0.2-0.4,0.5-0.7,0.9-1
	s0.8-0.4,1.3-0.6c0.5-0.1,1-0.2,1.5-0.3c0.6-0.1,1.1-0.1,1.5-0.2s0.7-0.2,0.8-0.3c0.2-0.1,0.3-0.3,0.3-0.5l0,0c0-0.4-0.1-0.8-0.4-1
	c-0.3-0.2-0.7-0.4-1.2-0.4s-1,0.1-1.3,0.4c-0.3,0.2-0.5,0.5-0.6,0.9l-2.8-0.2c0.1-0.7,0.4-1.2,0.8-1.7s1-0.9,1.6-1.1
	c0.7-0.3,1.4-0.4,2.3-0.4c0.6,0,1.2,0.1,1.7,0.2c0.6,0.1,1.1,0.4,1.5,0.7s0.8,0.7,1,1.2c0.3,0.5,0.4,1,0.4,1.7v7.4h-2.9V18h-0.1
	c-0.2,0.3-0.4,0.6-0.7,0.9c-0.3,0.3-0.6,0.5-1.1,0.6C45.8,19.5,45.3,19.5,44.8,19.5z M45.6,17.5c0.4,0,0.8-0.1,1.2-0.3
	c0.3-0.2,0.6-0.4,0.8-0.7c0.2-0.3,0.3-0.6,0.3-1v-1.2c-0.1,0.1-0.2,0.1-0.4,0.2c-0.2,0-0.3,0.1-0.5,0.1s-0.4,0.1-0.6,0.1
	s-0.4,0.1-0.6,0.1c-0.4,0.1-0.7,0.1-0.9,0.2c-0.3,0.1-0.5,0.3-0.6,0.5s-0.2,0.4-0.2,0.7c0,0.4,0.1,0.7,0.4,0.9
	C44.8,17.4,45.2,17.5,45.6,17.5z M59.1,8.4v2.3h-6.6V8.4H59.1z M54,5.8h3V16c0,0.3,0,0.5,0.1,0.7s0.2,0.3,0.4,0.3
	c0.2,0.1,0.3,0.1,0.5,0.1c0.1,0,0.3,0,0.4,0s0.3,0,0.3-0.1l0.5,2.3c-0.2,0-0.4,0.1-0.6,0.2c-0.3,0.1-0.6,0.1-1,0.1
	c-0.7,0-1.4-0.1-1.9-0.3c-0.5-0.2-1-0.6-1.3-1c-0.3-0.5-0.5-1.1-0.4-1.8V5.8z"/>
<path class="st1" d="M-43.8,26.4l0.2-1h6.2l-0.2,1h-2.5l-1.2,7h-1.1l1.2-7H-43.8z M-38.1,33.3l1-6h1.2l-0.2,1h0.1
	c0.2-0.3,0.4-0.6,0.7-0.8s0.6-0.3,1-0.3c0.1,0,0.2,0,0.3,0c0.1,0,0.2,0,0.2,0l-0.2,1.1c0,0-0.1,0-0.2,0c-0.1,0-0.2,0-0.4,0
	c-0.3,0-0.5,0.1-0.8,0.2c-0.2,0.1-0.4,0.3-0.6,0.5s-0.3,0.4-0.3,0.7l-0.6,3.6H-38.1z M-32.2,33.5c-0.4,0-0.7-0.1-1-0.2
	c-0.3-0.1-0.5-0.4-0.6-0.6c-0.1-0.3-0.2-0.6-0.1-1c0.1-0.3,0.2-0.6,0.3-0.8c0.2-0.2,0.4-0.4,0.6-0.5s0.5-0.2,0.8-0.3
	c0.3-0.2,0.6-0.2,0.9-0.2c0.4,0,0.7-0.1,0.9-0.1c0.2,0,0.4-0.1,0.5-0.1c0.1-0.1,0.2-0.2,0.2-0.3l0,0c0.1-0.3,0-0.6-0.1-0.8
	c-0.2-0.2-0.4-0.3-0.8-0.3s-0.7,0.1-1,0.3s-0.5,0.4-0.6,0.6l-1-0.2c0.2-0.4,0.4-0.7,0.7-0.9c0.3-0.2,0.6-0.4,1-0.5
	c0.3-0.1,0.7-0.2,1.1-0.2c0.2,0,0.5,0,0.7,0.1c0.3,0.1,0.5,0.2,0.7,0.3s0.4,0.4,0.5,0.6c0.1,0.3,0.1,0.6,0,1.1l-0.7,4h-1.1l0.1-0.8
	l0,0c-0.1,0.2-0.2,0.3-0.4,0.4c-0.2,0.1-0.4,0.3-0.6,0.4C-31.5,33.4-31.8,33.5-32.2,33.5z M-31.8,32.5c0.3,0,0.6-0.1,0.9-0.2
	c0.3-0.1,0.5-0.3,0.6-0.5c0.2-0.2,0.3-0.4,0.3-0.7l0.1-0.8c0,0-0.1,0.1-0.3,0.1c-0.1,0-0.3,0.1-0.4,0.1c-0.2,0-0.3,0-0.5,0.1
	c-0.1,0-0.3,0-0.4,0.1c-0.2,0-0.4,0.1-0.6,0.1c-0.2,0.1-0.4,0.2-0.5,0.3c-0.1,0.1-0.2,0.3-0.2,0.5c0,0.3,0,0.5,0.2,0.7
	C-32.3,32.5-32.1,32.5-31.8,32.5z M-27.6,33.3l1-6h1.2l-1,6H-27.6z M-25.8,26.4c-0.2,0-0.4-0.1-0.5-0.2s-0.2-0.3-0.2-0.5
	s0.1-0.4,0.2-0.5c0.2-0.1,0.3-0.2,0.5-0.2s0.4,0.1,0.5,0.2s0.2,0.3,0.2,0.5s-0.1,0.4-0.2,0.5S-25.6,26.4-25.8,26.4z M-22.4,25.3
	l-1.3,8h-1.2l1.3-8C-23.6,25.3-22.4,25.3-22.4,25.3z M-18,29.5l-0.2,1h-3.6l0.2-1H-18z M-17.1,33.3l1-6h1.2l-0.2,1h0.1
	c0.2-0.3,0.4-0.6,0.7-0.8s0.6-0.3,1-0.3c0.1,0,0.2,0,0.3,0s0.2,0,0.2,0l-0.2,1.1c0,0-0.1,0-0.2,0c-0.1,0-0.2,0-0.4,0
	c-0.3,0-0.5,0.1-0.8,0.2c-0.2,0.1-0.4,0.3-0.6,0.5c-0.2,0.2-0.3,0.4-0.3,0.7l-0.6,3.6H-17.1z M-11.1,33.5c-0.4,0-0.7-0.1-1-0.2
	c-0.3-0.1-0.5-0.4-0.6-0.6c-0.1-0.3-0.2-0.6-0.1-1c0.1-0.3,0.2-0.6,0.3-0.8c0.2-0.2,0.4-0.4,0.6-0.5c0.2-0.1,0.5-0.2,0.8-0.3
	s0.6-0.1,0.9-0.1c0.4,0,0.7-0.1,0.9-0.1s0.4-0.1,0.5-0.1c0.1-0.1,0.2-0.2,0.2-0.3l0,0c0.1-0.3,0-0.6-0.1-0.8
	c-0.2-0.2-0.4-0.3-0.8-0.3c-0.4,0-0.7,0.1-1,0.3s-0.5,0.4-0.6,0.6l-1-0.2c0.2-0.4,0.4-0.7,0.7-0.9s0.6-0.4,1-0.5
	c0.3-0.1,0.7-0.2,1.1-0.2c0.2,0,0.5,0,0.7,0.1c0.3,0.1,0.5,0.2,0.7,0.3c0.2,0.1,0.4,0.4,0.5,0.6c0.1,0.3,0.1,0.6,0,1.1l-0.7,4h-1.1
	l0.1-0.8l0,0c-0.1,0.2-0.2,0.3-0.4,0.4c-0.2,0.1-0.4,0.3-0.6,0.4C-10.5,33.4-10.8,33.5-11.1,33.5z M-10.7,32.5
	c0.3,0,0.6-0.1,0.9-0.2c0.3-0.1,0.5-0.3,0.6-0.5c0.2-0.2,0.3-0.4,0.3-0.7l0.1-0.8c0,0-0.1,0.1-0.3,0.1c-0.1,0-0.3,0.1-0.4,0.1
	c-0.2,0-0.3,0-0.5,0.1c-0.1,0-0.3,0-0.4,0.1c-0.2,0-0.4,0.1-0.6,0.1c-0.2,0.1-0.4,0.2-0.5,0.3s-0.2,0.3-0.2,0.5c0,0.3,0,0.5,0.2,0.7
	C-11.3,32.5-11.1,32.5-10.7,32.5z M-6.6,33.3l1-6h1.2l-1,6H-6.6z M-4.8,26.4c-0.2,0-0.4-0.1-0.5-0.2s-0.2-0.3-0.2-0.5
	s0.1-0.4,0.2-0.5C-5.1,25.1-5,25-4.8,25s0.4,0.1,0.5,0.2s0.2,0.3,0.2,0.5s-0.1,0.4-0.2,0.5C-4.4,26.3-4.6,26.4-4.8,26.4z M1.4,28.8
	L0.3,29c0-0.1-0.1-0.3-0.1-0.4c-0.1-0.1-0.2-0.2-0.3-0.3s-0.3-0.1-0.6-0.1s-0.6,0.1-0.9,0.2C-1.8,28.6-2,28.7-2,29
	c0,0.2,0,0.3,0.1,0.5c0.1,0.1,0.3,0.2,0.7,0.3l0.9,0.2c0.5,0.1,0.9,0.3,1.1,0.6c0.2,0.3,0.3,0.6,0.2,1s-0.2,0.7-0.5,0.9
	c-0.2,0.3-0.6,0.5-1,0.6c-0.4,0.2-0.8,0.2-1.3,0.2c-0.7,0-1.2-0.1-1.6-0.4s-0.5-0.6-0.5-1.1l1.2-0.2c0,0.3,0.1,0.5,0.3,0.7
	c0.2,0.1,0.5,0.2,0.8,0.2c0.4,0,0.7-0.1,1-0.2c0.3-0.2,0.4-0.4,0.4-0.6c0-0.2,0-0.3-0.1-0.5c-0.1-0.1-0.3-0.2-0.6-0.3l-1-0.2
	c-0.5-0.1-0.9-0.3-1.1-0.6c-0.2-0.3-0.3-0.6-0.2-1.1c0.1-0.4,0.2-0.7,0.4-0.9c0.2-0.3,0.5-0.5,0.9-0.6s0.8-0.2,1.2-0.2
	c0.7,0,1.1,0.1,1.5,0.4C1.2,28,1.3,28.3,1.4,28.8z M4.6,33.5c-0.6,0-1.1-0.1-1.5-0.4c-0.4-0.3-0.7-0.6-0.8-1.1
	c-0.2-0.5-0.2-1-0.1-1.6c0.1-0.6,0.3-1.2,0.6-1.6c0.3-0.5,0.7-0.8,1.1-1.1c0.5-0.3,1-0.4,1.5-0.4c0.3,0,0.7,0.1,1,0.2
	C6.7,27.6,7,27.8,7.2,28s0.4,0.6,0.4,0.9c0.1,0.4,0.1,0.8,0,1.4l-0.1,0.4H2.7l0.1-0.9h3.6c0.1-0.3,0-0.6,0-0.8
	c-0.1-0.2-0.2-0.4-0.4-0.6c-0.2-0.1-0.5-0.2-0.8-0.2s-0.6,0.1-0.9,0.2C4,28.6,3.8,28.8,3.6,29c-0.2,0.3-0.3,0.5-0.3,0.8l-0.1,0.8
	c-0.1,0.4-0.1,0.8,0,1.1s0.3,0.5,0.5,0.6s0.5,0.2,0.9,0.2c0.2,0,0.4,0,0.6-0.1c0.2-0.1,0.4-0.2,0.5-0.3C5.9,32,6,31.8,6.1,31.6
	l1.1,0.2c-0.1,0.3-0.3,0.6-0.6,0.9c-0.3,0.2-0.6,0.4-0.9,0.6C5.4,33.4,5,33.5,4.6,33.5z M8.5,33.3l1-6h1.1l-0.2,1h0.1
	c0.2-0.3,0.4-0.6,0.7-0.8s0.6-0.3,1-0.3c0.1,0,0.2,0,0.3,0s0.2,0,0.2,0l-0.2,1.1c0,0-0.1,0-0.2,0c-0.1,0-0.2,0-0.4,0
	c-0.3,0-0.5,0.1-0.8,0.2c-0.2,0.1-0.4,0.3-0.6,0.5c-0.2,0.2-0.3,0.4-0.3,0.7l-0.6,3.7H8.5V33.3z M15.8,33.3l1.3-8H20
	c0.6,0,1.1,0.1,1.5,0.3c0.4,0.2,0.6,0.5,0.8,0.9c0.1,0.4,0.2,0.8,0.1,1.3s-0.3,0.9-0.5,1.3c-0.3,0.4-0.6,0.7-1.1,0.9
	c-0.4,0.2-1,0.3-1.6,0.3h-2l0.2-1h1.7c0.4,0,0.7-0.1,1-0.2c0.3-0.1,0.5-0.3,0.6-0.6c0.2-0.2,0.3-0.5,0.3-0.8s0-0.6,0-0.8
	c-0.1-0.2-0.2-0.4-0.4-0.6c-0.2-0.1-0.5-0.2-0.9-0.2h-1.6l-1.2,7h-1.1V33.3z M22.7,33.3l1-6h1.1l-0.2,1h0.1c0.2-0.3,0.4-0.6,0.7-0.8
	c0.3-0.2,0.6-0.3,1-0.3c0.1,0,0.2,0,0.3,0c0.1,0,0.2,0,0.2,0l-0.2,1.1c0,0-0.1,0-0.2,0s-0.2,0-0.4,0c-0.3,0-0.5,0.1-0.8,0.2
	c-0.2,0.1-0.4,0.3-0.6,0.5s-0.3,0.4-0.3,0.7l-0.6,3.7h-1.1V33.3z M29.3,33.5c-0.6,0-1-0.1-1.4-0.4c-0.4-0.3-0.7-0.6-0.8-1.1
	c-0.2-0.5-0.2-1-0.1-1.7c0.1-0.6,0.3-1.2,0.6-1.6c0.3-0.5,0.7-0.8,1.1-1.1c0.5-0.3,1-0.4,1.5-0.4c0.6,0,1,0.1,1.4,0.4
	c0.4,0.3,0.7,0.6,0.8,1.1c0.2,0.5,0.2,1,0.1,1.7c-0.1,0.6-0.3,1.1-0.6,1.6c-0.3,0.5-0.7,0.8-1.1,1.1C30.3,33.3,29.8,33.5,29.3,33.5z
	 M29.3,32.5c0.4,0,0.7-0.1,1-0.3c0.3-0.2,0.5-0.5,0.7-0.8s0.3-0.7,0.4-1.1c0.1-0.4,0.1-0.7,0-1s-0.2-0.6-0.4-0.8
	c-0.2-0.2-0.5-0.3-0.8-0.3c-0.4,0-0.7,0.1-1,0.3s-0.5,0.5-0.7,0.8s-0.3,0.7-0.4,1.1c-0.1,0.4-0.1,0.7,0,1s0.2,0.6,0.4,0.8
	C28.7,32.4,29,32.5,29.3,32.5z M35.5,35.7c-0.5,0-0.9-0.1-1.2-0.2c-0.3-0.1-0.6-0.3-0.8-0.5c-0.2-0.2-0.3-0.4-0.4-0.7l1.1-0.4
	c0.1,0.1,0.1,0.2,0.2,0.4c0.1,0.1,0.2,0.2,0.4,0.3c0.2,0.1,0.4,0.1,0.8,0.1s0.8-0.1,1.2-0.3c0.3-0.2,0.5-0.6,0.6-1l0.2-1.2h-0.1
	c-0.1,0.1-0.2,0.3-0.4,0.4c-0.2,0.2-0.4,0.3-0.6,0.4s-0.6,0.2-0.9,0.2c-0.5,0-0.9-0.1-1.2-0.3c-0.3-0.2-0.6-0.6-0.7-1
	c-0.1-0.4-0.2-1-0.1-1.6s0.3-1.2,0.6-1.6c0.3-0.5,0.7-0.8,1.1-1s0.9-0.4,1.4-0.4c0.4,0,0.7,0.1,0.9,0.2c0.2,0.1,0.4,0.3,0.5,0.4
	c0.1,0.2,0.2,0.3,0.2,0.4h0.1l0.2-1h1.1l-1,6.1c-0.1,0.5-0.3,0.9-0.6,1.3c-0.3,0.3-0.7,0.6-1.1,0.7C36.5,35.6,36,35.7,35.5,35.7z
	 M36,32.3c0.3,0,0.6-0.1,0.9-0.2c0.3-0.2,0.5-0.4,0.7-0.7s0.3-0.7,0.4-1.1c0.1-0.4,0.1-0.8,0-1.1s-0.2-0.5-0.4-0.7
	c-0.2-0.2-0.5-0.3-0.8-0.3c-0.4,0-0.7,0.1-0.9,0.3c-0.3,0.2-0.5,0.4-0.6,0.7c-0.2,0.3-0.3,0.7-0.3,1c-0.1,0.4-0.1,0.7,0,1
	s0.2,0.5,0.4,0.7C35.4,32.2,35.7,32.3,36,32.3z M40.1,33.3l1-6h1.1l-0.2,1h0.1c0.2-0.3,0.4-0.6,0.7-0.8c0.3-0.2,0.6-0.3,1-0.3
	c0.1,0,0.2,0,0.3,0c0.1,0,0.2,0,0.2,0l-0.2,1.1c0,0-0.1,0-0.2,0s-0.2,0-0.4,0c-0.3,0-0.5,0.1-0.8,0.2c-0.2,0.1-0.4,0.3-0.6,0.5
	s-0.3,0.4-0.3,0.7l-0.6,3.7h-1.1V33.3z M46.1,33.5c-0.4,0-0.7-0.1-1-0.2c-0.3-0.1-0.5-0.4-0.6-0.6c-0.1-0.3-0.2-0.6-0.1-1
	c0.1-0.3,0.2-0.6,0.3-0.8c0.2-0.2,0.4-0.4,0.6-0.5s0.5-0.2,0.8-0.3S46.7,30,47,30c0.4,0,0.7-0.1,0.9-0.1c0.2,0,0.4-0.1,0.5-0.1
	c0.1-0.1,0.2-0.2,0.2-0.3l0,0c0.1-0.3,0-0.6-0.1-0.8c-0.2-0.2-0.4-0.3-0.8-0.3s-0.7,0.1-1,0.3s-0.5,0.4-0.6,0.6l-1-0.2
	c0.2-0.4,0.4-0.7,0.7-0.9c0.3-0.2,0.6-0.4,1-0.5c0.3-0.1,0.7-0.2,1.1-0.2c0.2,0,0.5,0,0.7,0.1c0.3,0.1,0.5,0.2,0.7,0.3
	s0.4,0.4,0.5,0.6c0.1,0.3,0.1,0.6,0,1.1l-0.7,4H48l0.1-0.8l0,0c-0.1,0.2-0.2,0.3-0.4,0.4c-0.2,0.1-0.4,0.3-0.6,0.4
	C46.7,33.4,46.4,33.5,46.1,33.5z M46.4,32.5c0.3,0,0.6-0.1,0.9-0.2c0.3-0.1,0.5-0.3,0.6-0.5c0.2-0.2,0.3-0.4,0.3-0.7l0.1-0.8
	c0,0-0.1,0.1-0.3,0.1c-0.1,0-0.3,0.1-0.4,0.1c-0.2,0-0.3,0-0.5,0.1c-0.1,0-0.3,0-0.4,0.1c-0.2,0-0.4,0.1-0.6,0.1
	c-0.2,0.1-0.4,0.2-0.5,0.3s-0.2,0.3-0.2,0.5c0,0.3,0,0.5,0.2,0.7C45.9,32.5,46.1,32.5,46.4,32.5z M50.6,33.3l1-6h1.1l-0.2,1h0.1
	c0.2-0.3,0.4-0.6,0.7-0.8c0.3-0.2,0.7-0.3,1.1-0.3s0.7,0.1,1,0.3c0.2,0.2,0.4,0.4,0.5,0.8H56c0.2-0.3,0.5-0.6,0.8-0.8
	s0.7-0.3,1.2-0.3s1,0.2,1.2,0.5c0.3,0.3,0.4,0.9,0.3,1.5l-0.7,4h-1.2l0.7-3.9c0.1-0.4,0-0.7-0.2-0.9s-0.4-0.3-0.7-0.3
	c-0.4,0-0.7,0.1-0.9,0.4c-0.2,0.2-0.4,0.5-0.5,0.9l-0.6,3.8h-1.3l0.7-4c0.1-0.3,0-0.6-0.2-0.8s-0.4-0.3-0.7-0.3
	c-0.2,0-0.4,0.1-0.6,0.2c-0.2,0.1-0.4,0.3-0.5,0.5s-0.2,0.4-0.3,0.7l-0.6,3.7L50.6,33.3L50.6,33.3z"/>
</svg>
