<svg width="16" height="16" viewBox="0 0 16 16" fill="none" xmlns="http://www.w3.org/2000/svg">
<path d="M12.7592 4.04775C12.8895 4.1621 12.896 4.36278 12.7734 4.48537L11.6256 5.6332C11.5693 5.68947 11.493 5.72107 11.4135 5.72107H3.97773C3.81205 5.72107 3.67773 5.58676 3.67773 5.42107V3.28145C3.67773 3.11576 3.81205 2.98145 3.97773 2.98145H11.431C11.5038 2.98145 11.5741 3.00793 11.6289 3.05595L12.7592 4.04775Z" fill="#656B7C"/>
<path d="M11.0221 7.66602C11.1878 7.66602 11.3221 7.80033 11.3221 7.96602V10.1056C11.3221 10.2713 11.1878 10.4056 11.0221 10.4056H3.56885C3.49604 10.4056 3.42571 10.3792 3.37098 10.3311L2.24069 9.33934C2.11038 9.22499 2.10383 9.02431 2.22643 8.90171L3.37426 7.75388C3.43052 7.69762 3.50682 7.66602 3.58639 7.66602H11.0221Z" fill="#656B7C"/>
<path d="M7.08789 6.14746H7.9133V7.23624H7.08789V6.14746Z" fill="#656B7C"/>
<path d="M7.08789 10.833H7.9133V15.2731H7.08789V10.833Z" fill="#656B7C"/>
<path d="M7.08789 2H7.9133V2.55164H7.08789V2Z" fill="#656B7C"/>
</svg>
