<svg width="14" height="14" viewBox="0 0 14 14" fill="none" xmlns="http://www.w3.org/2000/svg">
<path d="M7.0005 0C8.85715 0 10.6378 0.737551 11.9506 2.0504C13.2634 3.36325 14.001 5.14385 14.001 7.0005C14.001 8.85715 13.2634 10.6378 11.9506 11.9506C10.6378 13.2634 8.85715 14.001 7.0005 14.001C5.14385 14.001 3.36325 13.2634 2.0504 11.9506C0.73755 10.6378 0 8.85715 0 7.0005C0 5.14385 0.73755 3.36325 2.0504 2.0504C3.36325 0.737551 5.14385 0 7.0005 0ZM8.0505 4.298C8.5705 4.298 8.9925 3.937 8.9925 3.402C8.9925 2.867 8.5695 2.506 8.0505 2.506C7.5305 2.506 7.1105 2.867 7.1105 3.402C7.1105 3.937 7.5305 4.298 8.0505 4.298ZM8.2335 9.925C8.2335 9.818 8.2705 9.54 8.2495 9.382L7.4275 10.328C7.2575 10.507 7.0445 10.631 6.9445 10.598C6.89913 10.5813 6.86121 10.549 6.83756 10.5068C6.81391 10.4646 6.80609 10.4154 6.8155 10.368L8.1855 6.04C8.2975 5.491 7.9895 4.99 7.3365 4.926C6.6475 4.926 5.6335 5.625 5.0165 6.512C5.0165 6.618 4.9965 6.882 5.0175 7.04L5.8385 6.093C6.0085 5.916 6.2065 5.791 6.3065 5.825C6.35577 5.84268 6.39614 5.87898 6.41895 5.92609C6.44176 5.97321 6.44519 6.02739 6.4285 6.077L5.0705 10.384C4.9135 10.888 5.2105 11.382 5.9305 11.494C6.9905 11.494 7.6165 10.812 8.2345 9.925H8.2335Z" fill="#969494"/>
</svg>
