<svg width="16" height="16" viewBox="0 0 16 16" fill="none" xmlns="http://www.w3.org/2000/svg">
<path d="M12.5834 11.5408L9.94334 13.2677C9.58903 13.4677 9.45812 13.2722 9.60341 13.0978L9.85729 12.7939C10.0506 12.5625 9.99914 12.4979 9.72316 12.4306L8.0677 12.0316C7.66531 11.9331 7.46637 11.9724 7.09103 12.2739L5.81992 13.2922C5.38943 13.7014 5.00078 13.7461 4.44431 13.7461H3.33523C2.94207 13.7461 2.90945 13.7729 2.65107 14.0691L2.12207 14.6736C1.86304 14.9698 2.03945 15.3846 2.43303 15.3846H12.4491C13.0459 15.3846 13.3266 15.0826 13.3266 14.5843V11.8908C13.3266 11.3708 12.9266 11.3174 12.5834 11.5408Z" fill="#656B7C"/>
<path fill-rule="evenodd" clip-rule="evenodd" d="M8.4232 3.05663C8.03197 3.6925 7.20059 3.89037 6.5645 3.5C5.9297 3.11006 5.73184 2.27868 6.12177 1.64453C6.51278 1.00865 7.34352 0.809499 7.97811 1.19965C8.61655 1.59023 8.81313 2.42183 8.4232 3.05663Z" fill="#656B7C"/>
<path d="M6.17144 4.21463C5.874 4.21463 5.61261 4.41142 5.53127 4.69641L4.64023 7.82514C4.50718 8.29212 4.62671 8.54042 5.01128 8.66768L7.0805 9.35506L7.41357 10.9837C7.43911 11.9067 8.90121 11.8052 8.74219 10.8953L8.37908 8.81726C8.33208 8.54922 8.17885 8.31122 7.91961 8.22731L6.56052 7.78801L6.74722 7.17639L7.15197 5.85957L7.96317 6.77079C8.07048 6.89161 8.22585 6.96071 8.38895 6.96071H9.82509V11.6719C9.83646 12.2243 10.659 12.2243 10.6702 11.6719V4.77238C10.6736 4.53546 10.4788 4.3421 10.2408 4.34511C10.0084 4.34854 9.82294 4.53975 9.82487 4.77238V5.82502H8.64111L7.38138 4.41013C7.26657 4.28158 7.10089 4.20669 6.92771 4.21441L6.17144 4.21463Z" fill="#656B7C"/>
<path d="M4.79303 9.00488L3.74898 12.4104C3.4481 13.2811 4.7838 13.6904 5.02201 12.8017L6.05813 9.42615L4.79303 9.00488Z" fill="#656B7C"/>
<path fill-rule="evenodd" clip-rule="evenodd" d="M3.48713 3.52317C3.07122 3.49098 2.67785 3.75365 2.55832 4.17149C2.44093 4.58181 2.62871 5.00308 2.98538 5.19987L2.48321 6.95577C2.39929 7.24849 2.54029 7.54357 2.79975 7.6174L3.66246 7.86419C3.92235 7.93823 4.19811 7.76269 4.28202 7.47082L5.1192 4.54233C5.20311 4.25046 5.06211 3.9556 4.80287 3.88048L3.66697 3.55557C3.60666 3.53905 3.54743 3.52896 3.48713 3.52317Z" fill="#656B7C"/>
</svg>
