<svg width="16" height="16" viewBox="0 0 16 16" fill="none" xmlns="http://www.w3.org/2000/svg">
<path d="M14.3996 3.3998C14.3996 3.24067 14.3364 3.08806 14.2239 2.97554C14.1114 2.86302 13.9587 2.7998 13.7996 2.7998C13.6405 2.7998 13.4879 2.86302 13.3753 2.97554C13.2628 3.08806 13.1996 3.24067 13.1996 3.3998V12.1998C13.1996 12.3589 13.2628 12.5115 13.3753 12.6241C13.4879 12.7366 13.6405 12.7998 13.7996 12.7998C13.9587 12.7998 14.1114 12.7366 14.2239 12.6241C14.3364 12.5115 14.3996 12.3589 14.3996 12.1998V3.3998ZM2.79961 3.3998C2.79961 3.24067 2.7364 3.08806 2.62387 2.97554C2.51135 2.86302 2.35874 2.7998 2.19961 2.7998C2.04048 2.7998 1.88787 2.86302 1.77535 2.97554C1.66282 3.08806 1.59961 3.24067 1.59961 3.3998V12.1998C1.59961 12.3589 1.66282 12.5115 1.77535 12.6241C1.88787 12.7366 2.04048 12.7998 2.19961 12.7998C2.35874 12.7998 2.51135 12.7366 2.62387 12.6241C2.7364 12.5115 2.79961 12.3589 2.79961 12.1998V3.3998ZM4.17561 8.2238L5.77561 9.8238C5.88935 9.92979 6.03979 9.98749 6.19523 9.98475C6.35067 9.982 6.49898 9.91903 6.60891 9.8091C6.71884 9.69917 6.78181 9.55086 6.78455 9.39542C6.78729 9.23998 6.72959 9.08954 6.62361 8.9758L6.04761 8.3998H9.95161L9.37561 8.9758C9.31666 9.03073 9.26938 9.09697 9.23658 9.17057C9.20379 9.24417 9.18616 9.32362 9.18474 9.40419C9.18331 9.48475 9.19813 9.56477 9.22831 9.63948C9.25849 9.71419 9.3034 9.78206 9.36038 9.83904C9.41735 9.89601 9.48522 9.94093 9.55993 9.9711C9.63464 10.0013 9.71466 10.0161 9.79523 10.0147C9.87579 10.0133 9.95524 9.99562 10.0288 9.96283C10.1024 9.93004 10.1687 9.88275 10.2236 9.8238L11.8236 8.2238C11.936 8.1113 11.9991 7.95881 11.9991 7.7998C11.9991 7.6408 11.936 7.48831 11.8236 7.3758L10.2236 5.7758C10.1687 5.71686 10.1024 5.66957 10.0288 5.63678C9.95524 5.60399 9.87579 5.58635 9.79523 5.58493C9.71466 5.58351 9.63464 5.59833 9.55993 5.62851C9.48522 5.65868 9.41735 5.7036 9.36038 5.76057C9.3034 5.81755 9.25849 5.88542 9.22831 5.96013C9.19813 6.03484 9.18331 6.11486 9.18474 6.19542C9.18616 6.27599 9.20379 6.35544 9.23658 6.42904C9.26938 6.50263 9.31666 6.56887 9.37561 6.6238L9.95161 7.1998H6.04761L6.62361 6.6238C6.72959 6.51006 6.78729 6.35963 6.78455 6.20419C6.78181 6.04875 6.71884 5.90044 6.60891 5.79051C6.49898 5.68058 6.35067 5.61761 6.19523 5.61486C6.03979 5.61212 5.88935 5.66982 5.77561 5.7758L4.17561 7.3758C4.06325 7.48831 4.00014 7.6408 4.00014 7.7998C4.00014 7.95881 4.06325 8.1113 4.17561 8.2238Z" fill="#656B7C"/>
</svg>
