<svg width="16" height="16" viewBox="0 0 16 16" fill="none" xmlns="http://www.w3.org/2000/svg">
<path d="M14.055 11.1421L11.0478 13.1092C10.6442 13.337 10.4951 13.1143 10.6606 12.9156L10.9498 12.5695C11.17 12.3059 11.1114 12.2324 10.797 12.1556L8.91137 11.7012C8.45304 11.589 8.22644 11.6337 7.79891 11.9772L6.35106 13.1371C5.86071 13.6032 5.41802 13.6541 4.78417 13.6541H3.52089C3.07306 13.6541 3.03591 13.6846 2.7416 14.0219L2.13904 14.7105C1.844 15.0479 2.04493 15.5204 2.49324 15.5204H13.902C14.5818 15.5204 14.9015 15.1765 14.9015 14.6089V11.5408C14.9015 10.9485 14.4458 10.8877 14.055 11.1421Z" fill="#656B7C"/>
<path d="M6.87056 11.3643H11.1305C11.3983 11.3643 11.6191 11.1465 11.6191 10.8786C11.6191 10.7108 11.5367 10.5665 11.4101 10.4782C11.3306 10.4223 11.2335 10.3899 11.1305 10.3899H7.3151L3.85597 6.44501C3.7765 6.35375 3.66757 6.29782 3.5557 6.28605C3.42027 6.26249 3.27602 6.30076 3.1671 6.39792C2.96397 6.5775 2.94336 6.88366 3.11999 7.08679L6.87056 11.3643Z" fill="#656B7C"/>
<path d="M5.13311 7.01051L5.28031 6.82504C5.55409 6.47764 5.53348 5.96835 5.22732 5.64452L4.65914 5.04102L3.86133 5.75934C4.02913 5.8182 4.17928 5.92125 4.29997 6.05961L5.13311 7.01051Z" fill="#656B7C"/>
<path d="M5.74043 7.18976L5.52845 7.45765L7.58334 9.80103H11.1308C11.3045 9.80103 11.4693 9.84225 11.6195 9.91878V9.55668C11.6195 8.8207 11.0925 8.19069 10.3683 8.0641L9.09946 7.84036L7.99842 5.85027C6.70015 5.68541 6.43519 4.40184 6.3822 3.80128C6.37336 3.67764 6.37043 3.58343 6.37043 3.53337C6.37043 3.50983 6.37043 3.49512 6.37043 3.49512L5.0957 4.64619L5.65799 5.24087C6.16141 5.77667 6.19673 6.61274 5.74043 7.18976Z" fill="#656B7C"/>
<path d="M8.28963 5.54745L10.4505 4.22267L8.5546 2L6.95898 3.26884V3.53378C6.95898 3.575 6.96191 3.65449 6.96781 3.76047C7.0208 4.36398 7.52127 5.38848 8.28963 5.54745Z" fill="#656B7C"/>
</svg>
