<svg width="82" height="26" viewBox="0 0 82 26" fill="none" xmlns="http://www.w3.org/2000/svg">
<rect x="0.5" y="1" width="81" height="24" rx="4.5" fill="#FCEDD8"/>
<rect x="0.5" y="1" width="81" height="24" rx="4.5" stroke="#F7D1A4"/>
<path d="M10.0545 17.5V8.77273H11.3713V12.5653H15.7221V8.77273H17.0431V17.5H15.7221V13.6946H11.3713V17.5H10.0545ZM18.8585 17.5V10.9545H20.1326V17.5H18.8585ZM19.502 9.9446C19.2804 9.9446 19.09 9.87074 18.9309 9.72301C18.7747 9.57244 18.6966 9.39347 18.6966 9.18608C18.6966 8.97585 18.7747 8.79687 18.9309 8.64915C19.09 8.49858 19.2804 8.4233 19.502 8.4233C19.7235 8.4233 19.9125 8.49858 20.0687 8.64915C20.2278 8.79687 20.3074 8.97585 20.3074 9.18608C20.3074 9.39347 20.2278 9.57244 20.0687 9.72301C19.9125 9.87074 19.7235 9.9446 19.502 9.9446ZM23.0186 15.2798L23.0101 13.7244H23.2317L25.8397 10.9545H27.3652L24.3908 14.108H24.1905L23.0186 15.2798ZM21.8468 17.5V8.77273H23.1209V17.5H21.8468ZM25.9803 17.5L23.6365 14.3892L24.5144 13.4986L27.5442 17.5H25.9803ZM28.5265 17.5V10.9545H29.8006V17.5H28.5265ZM29.1699 9.9446C28.9483 9.9446 28.758 9.87074 28.5989 9.72301C28.4426 9.57244 28.3645 9.39347 28.3645 9.18608C28.3645 8.97585 28.4426 8.79687 28.5989 8.64915C28.758 8.49858 28.9483 8.4233 29.1699 8.4233C29.3915 8.4233 29.5804 8.49858 29.7367 8.64915C29.8958 8.79687 29.9753 8.97585 29.9753 9.18608C29.9753 9.39347 29.8958 9.57244 29.7367 9.72301C29.5804 9.87074 29.3915 9.9446 29.1699 9.9446ZM32.7889 13.6136V17.5H31.5147V10.9545H32.7377V12.0199H32.8187C32.9693 11.6733 33.2051 11.3949 33.5261 11.1847C33.85 10.9744 34.2576 10.8693 34.7491 10.8693C35.1951 10.8693 35.5858 10.9631 35.921 11.1506C36.2562 11.3352 36.5162 11.6108 36.7008 11.9773C36.8855 12.3437 36.9778 12.7969 36.9778 13.3366V17.5H35.7037V13.4901C35.7037 13.0156 35.5801 12.6449 35.3329 12.3778C35.0858 12.108 34.7463 11.973 34.3145 11.973C34.019 11.973 33.7562 12.0369 33.5261 12.1648C33.2988 12.2926 33.1184 12.4801 32.9849 12.7273C32.8542 12.9716 32.7889 13.267 32.7889 13.6136ZM41.4309 20.0909C40.911 20.0909 40.4636 20.0227 40.0886 19.8864C39.7164 19.75 39.4125 19.5696 39.1767 19.3452C38.9409 19.1207 38.7647 18.875 38.6483 18.608L39.7434 18.1562C39.8201 18.2812 39.9224 18.4134 40.0502 18.5526C40.1809 18.6946 40.3571 18.8153 40.5787 18.9148C40.8031 19.0142 41.0914 19.0639 41.4437 19.0639C41.9267 19.0639 42.3258 18.946 42.6412 18.7102C42.9565 18.4773 43.1142 18.1051 43.1142 17.5938V16.3068H43.0332C42.9565 16.446 42.8457 16.6009 42.7008 16.7713C42.5588 16.9418 42.3627 17.0895 42.1127 17.2145C41.8627 17.3395 41.5375 17.402 41.1369 17.402C40.6199 17.402 40.1539 17.2812 39.7392 17.0398C39.3272 16.7955 39.0005 16.4361 38.7591 15.9616C38.5204 15.4844 38.4011 14.8977 38.4011 14.2017C38.4011 13.5057 38.519 12.9091 38.7548 12.4119C38.9934 11.9148 39.3201 11.5341 39.7349 11.2699C40.1497 11.0028 40.6199 10.8693 41.1454 10.8693C41.5517 10.8693 41.8798 10.9375 42.1298 11.0739C42.3798 11.2074 42.5744 11.3636 42.7136 11.5426C42.8556 11.7216 42.965 11.8793 43.0417 12.0156H43.1355V10.9545H44.3841V17.6449C44.3841 18.2074 44.2534 18.669 43.992 19.0298C43.7306 19.3906 43.377 19.6577 42.9309 19.831C42.4877 20.0043 41.9877 20.0909 41.4309 20.0909ZM41.4181 16.3452C41.7846 16.3452 42.0943 16.2599 42.3471 16.0895C42.6028 15.9162 42.796 15.669 42.9267 15.348C43.0602 15.0241 43.127 14.6364 43.127 14.1847C43.127 13.7443 43.0616 13.3565 42.9309 13.0213C42.8002 12.6861 42.6085 12.4247 42.3556 12.2372C42.1028 12.0469 41.7903 11.9517 41.4181 11.9517C41.0346 11.9517 40.715 12.0511 40.4593 12.25C40.2037 12.446 40.0105 12.7131 39.8798 13.0511C39.752 13.3892 39.688 13.767 39.688 14.1847C39.688 14.6136 39.7534 14.9901 39.8841 15.3139C40.0147 15.6378 40.2079 15.8906 40.4636 16.0724C40.7221 16.2543 41.0403 16.3452 41.4181 16.3452ZM48.9405 9.90625V8.77273H55.6948V9.90625H52.9718V17.5H51.6593V9.90625H48.9405ZM56.4054 17.5V10.9545H57.6369V11.9943H57.7051C57.8244 11.642 58.0346 11.3651 58.3358 11.1634C58.6397 10.9588 58.9835 10.8565 59.367 10.8565C59.4466 10.8565 59.5403 10.8594 59.6483 10.8651C59.7591 10.8707 59.8457 10.8778 59.9082 10.8864V12.1051C59.8571 12.0909 59.7662 12.0753 59.6355 12.0582C59.5048 12.0384 59.3741 12.0284 59.2434 12.0284C58.9423 12.0284 58.6738 12.0923 58.438 12.2202C58.2051 12.3452 58.0204 12.5199 57.8841 12.7443C57.7477 12.9659 57.6795 13.2187 57.6795 13.5028V17.5H56.4054ZM62.8571 17.6449C62.4423 17.6449 62.0673 17.5682 61.7321 17.4148C61.3968 17.2585 61.1312 17.0327 60.9352 16.7372C60.742 16.4418 60.6454 16.0795 60.6454 15.6506C60.6454 15.2812 60.7164 14.9773 60.8585 14.7386C61.0005 14.5 61.1923 14.3111 61.4338 14.1719C61.6752 14.0327 61.9451 13.9276 62.2434 13.8565C62.5417 13.7855 62.8457 13.7315 63.1554 13.6946C63.5474 13.6491 63.8656 13.6122 64.1099 13.5838C64.3542 13.5526 64.5318 13.5028 64.6426 13.4347C64.7534 13.3665 64.8088 13.2557 64.8088 13.1023V13.0724C64.8088 12.7003 64.7037 12.4119 64.4934 12.2074C64.286 12.0028 63.9764 11.9006 63.5645 11.9006C63.1355 11.9006 62.7974 11.9957 62.5502 12.1861C62.3059 12.3736 62.1369 12.5824 62.0431 12.8125L60.8457 12.5398C60.9877 12.142 61.1951 11.821 61.4679 11.5767C61.7434 11.3295 62.0602 11.1506 62.4181 11.0398C62.7761 10.9261 63.1525 10.8693 63.5474 10.8693C63.8088 10.8693 64.0858 10.9006 64.3784 10.9631C64.6738 11.0227 64.9494 11.1335 65.2051 11.2955C65.4636 11.4574 65.6752 11.6889 65.84 11.9901C66.0048 12.2884 66.0872 12.6761 66.0872 13.1534V17.5H64.8429V16.6051H64.7917C64.7093 16.7699 64.5858 16.9318 64.421 17.0909C64.2562 17.25 64.0446 17.3821 63.786 17.4872C63.5275 17.5923 63.2179 17.6449 62.8571 17.6449ZM63.1341 16.6222C63.4863 16.6222 63.7875 16.5526 64.0375 16.4134C64.2903 16.2741 64.4821 16.0923 64.6127 15.8679C64.7463 15.6406 64.813 15.3977 64.813 15.1392V14.2955C64.7676 14.3409 64.6795 14.3835 64.5488 14.4233C64.421 14.4602 64.2747 14.4929 64.1099 14.5213C63.9451 14.5469 63.7846 14.571 63.6284 14.5938C63.4721 14.6136 63.3414 14.6307 63.2363 14.6449C62.9892 14.6761 62.7633 14.7287 62.5588 14.8026C62.3571 14.8764 62.1951 14.983 62.073 15.1222C61.9537 15.2585 61.894 15.4403 61.894 15.6676C61.894 15.983 62.0105 16.2216 62.2434 16.3835C62.4764 16.5426 62.7733 16.6222 63.1341 16.6222ZM67.7843 17.5V10.9545H69.0584V17.5H67.7843ZM68.4277 9.9446C68.2061 9.9446 68.0158 9.87074 67.8567 9.72301C67.7005 9.57244 67.6223 9.39347 67.6223 9.18608C67.6223 8.97585 67.7005 8.79687 67.8567 8.64915C68.0158 8.49858 68.2061 8.4233 68.4277 8.4233C68.6493 8.4233 68.8382 8.49858 68.9945 8.64915C69.1536 8.79687 69.2331 8.97585 69.2331 9.18608C69.2331 9.39347 69.1536 9.57244 68.9945 9.72301C68.8382 9.87074 68.6493 9.9446 68.4277 9.9446ZM72.0467 8.77273V17.5H70.7725V8.77273H72.0467Z" fill="#812510"/>
</svg>
