<svg width="111" height="26" viewBox="0 0 111 26" fill="none" xmlns="http://www.w3.org/2000/svg">
<rect x="0.5" y="1" width="110" height="24" rx="4.5" fill="#D0E1FF"/>
<rect x="0.5" y="1" width="110" height="24" rx="4.5" stroke="#A4BAE0"/>
<path d="M10.4451 8.77273H12.0431L14.8216 15.5568H14.9238L17.7022 8.77273H19.3002V17.5H18.0474V11.1847H17.9664L15.3926 17.4872H14.3528L11.7789 11.1804H11.698V17.5H10.4451V8.77273ZM23.8695 17.6321C23.2559 17.6321 22.7203 17.4915 22.263 17.2102C21.8056 16.929 21.4505 16.5355 21.1976 16.0298C20.9448 15.5241 20.8184 14.9332 20.8184 14.2571C20.8184 13.5781 20.9448 12.9844 21.1976 12.4759C21.4505 11.9673 21.8056 11.5724 22.263 11.2912C22.7203 11.0099 23.2559 10.8693 23.8695 10.8693C24.4831 10.8693 25.0186 11.0099 25.476 11.2912C25.9334 11.5724 26.2885 11.9673 26.5414 12.4759C26.7942 12.9844 26.9206 13.5781 26.9206 14.2571C26.9206 14.9332 26.7942 15.5241 26.5414 16.0298C26.2885 16.5355 25.9334 16.929 25.476 17.2102C25.0186 17.4915 24.4831 17.6321 23.8695 17.6321ZM23.8738 16.5625C24.2715 16.5625 24.601 16.4574 24.8624 16.2472C25.1238 16.0369 25.3169 15.7571 25.4419 15.4077C25.5698 15.0582 25.6337 14.6733 25.6337 14.2528C25.6337 13.8352 25.5698 13.4517 25.4419 13.1023C25.3169 12.75 25.1238 12.4673 24.8624 12.2543C24.601 12.0412 24.2715 11.9347 23.8738 11.9347C23.4732 11.9347 23.1408 12.0412 22.8766 12.2543C22.6152 12.4673 22.4206 12.75 22.2928 13.1023C22.1678 13.4517 22.1053 13.8352 22.1053 14.2528C22.1053 14.6733 22.1678 15.0582 22.2928 15.4077C22.4206 15.7571 22.6152 16.0369 22.8766 16.2472C23.1408 16.4574 23.4732 16.5625 23.8738 16.5625ZM32.4892 14.7855V10.9545H33.7676V17.5H32.5147V16.3665H32.4466C32.296 16.7159 32.0545 17.0071 31.7221 17.2401C31.3926 17.4702 30.9821 17.5852 30.4906 17.5852C30.0701 17.5852 29.698 17.4929 29.3741 17.3082C29.0531 17.1207 28.8002 16.8438 28.6156 16.4773C28.4338 16.1108 28.3429 15.6577 28.3429 15.1179V10.9545H29.617V14.9645C29.617 15.4105 29.7406 15.7656 29.9877 16.0298C30.2349 16.294 30.5559 16.4261 30.9508 16.4261C31.1895 16.4261 31.4267 16.3665 31.6625 16.2472C31.9011 16.1278 32.0985 15.9474 32.2548 15.706C32.4139 15.4645 32.492 15.1577 32.4892 14.7855ZM36.7537 13.6136V17.5H35.4796V10.9545H36.7026V12.0199H36.7836C36.9341 11.6733 37.1699 11.3949 37.4909 11.1847C37.8148 10.9744 38.2225 10.8693 38.714 10.8693C39.16 10.8693 39.5506 10.9631 39.8858 11.1506C40.2211 11.3352 40.481 11.6108 40.6657 11.9773C40.8503 12.3437 40.9426 12.7969 40.9426 13.3366V17.5H39.6685V13.4901C39.6685 13.0156 39.5449 12.6449 39.2978 12.3778C39.0506 12.108 38.7111 11.973 38.2793 11.973C37.9838 11.973 37.7211 12.0369 37.4909 12.1648C37.2637 12.2926 37.0833 12.4801 36.9498 12.7273C36.8191 12.9716 36.7537 13.267 36.7537 13.6136ZM45.7069 10.9545V11.9773H42.1316V10.9545H45.7069ZM43.0904 9.38636H44.3645V15.5781C44.3645 15.8253 44.4015 16.0114 44.4753 16.1364C44.5492 16.2585 44.6444 16.3423 44.7608 16.3878C44.8801 16.4304 45.0094 16.4517 45.1486 16.4517C45.2509 16.4517 45.3404 16.4446 45.4171 16.4304C45.4938 16.4162 45.5534 16.4048 45.5961 16.3963L45.8262 17.4489C45.7523 17.4773 45.6472 17.5057 45.5108 17.5341C45.3745 17.5653 45.204 17.5824 44.9995 17.5852C44.6642 17.5909 44.3517 17.5312 44.062 17.4062C43.7722 17.2812 43.5378 17.0881 43.3588 16.8267C43.1799 16.5653 43.0904 16.2372 43.0904 15.8423V9.38636ZM49.0211 17.6449C48.6064 17.6449 48.2314 17.5682 47.8961 17.4148C47.5609 17.2585 47.2953 17.0327 47.0993 16.7372C46.9061 16.4418 46.8095 16.0795 46.8095 15.6506C46.8095 15.2812 46.8805 14.9773 47.0225 14.7386C47.1646 14.5 47.3564 14.3111 47.5978 14.1719C47.8393 14.0327 48.1092 13.9276 48.4075 13.8565C48.7058 13.7855 49.0098 13.7315 49.3194 13.6946C49.7115 13.6491 50.0297 13.6122 50.274 13.5838C50.5183 13.5526 50.6958 13.5028 50.8066 13.4347C50.9174 13.3665 50.9728 13.2557 50.9728 13.1023V13.0724C50.9728 12.7003 50.8677 12.4119 50.6575 12.2074C50.4501 12.0028 50.1404 11.9006 49.7285 11.9006C49.2995 11.9006 48.9615 11.9957 48.7143 12.1861C48.47 12.3736 48.301 12.5824 48.2072 12.8125L47.0098 12.5398C47.1518 12.142 47.3592 11.821 47.6319 11.5767C47.9075 11.3295 48.2243 11.1506 48.5822 11.0398C48.9402 10.9261 49.3166 10.8693 49.7115 10.8693C49.9728 10.8693 50.2498 10.9006 50.5424 10.9631C50.8379 11.0227 51.1135 11.1335 51.3691 11.2955C51.6277 11.4574 51.8393 11.6889 52.0041 11.9901C52.1689 12.2884 52.2512 12.6761 52.2512 13.1534V17.5H51.0069V16.6051H50.9558C50.8734 16.7699 50.7498 16.9318 50.585 17.0909C50.4203 17.25 50.2086 17.3821 49.9501 17.4872C49.6916 17.5923 49.3819 17.6449 49.0211 17.6449ZM49.2981 16.6222C49.6504 16.6222 49.9515 16.5526 50.2015 16.4134C50.4544 16.2741 50.6461 16.0923 50.7768 15.8679C50.9103 15.6406 50.9771 15.3977 50.9771 15.1392V14.2955C50.9316 14.3409 50.8436 14.3835 50.7129 14.4233C50.585 14.4602 50.4387 14.4929 50.274 14.5213C50.1092 14.5469 49.9487 14.571 49.7924 14.5938C49.6362 14.6136 49.5055 14.6307 49.4004 14.6449C49.1532 14.6761 48.9274 14.7287 48.7228 14.8026C48.5211 14.8764 48.3592 14.983 48.237 15.1222C48.1177 15.2585 48.0581 15.4403 48.0581 15.6676C48.0581 15.983 48.1745 16.2216 48.4075 16.3835C48.6404 16.5426 48.9373 16.6222 49.2981 16.6222ZM53.9483 17.5V10.9545H55.2225V17.5H53.9483ZM54.5918 9.9446C54.3702 9.9446 54.1799 9.87074 54.0208 9.72301C53.8645 9.57244 53.7864 9.39347 53.7864 9.18608C53.7864 8.97585 53.8645 8.79687 54.0208 8.64915C54.1799 8.49858 54.3702 8.4233 54.5918 8.4233C54.8134 8.4233 55.0023 8.49858 55.1586 8.64915C55.3176 8.79687 55.3972 8.97585 55.3972 9.18608C55.3972 9.39347 55.3176 9.57244 55.1586 9.72301C55.0023 9.87074 54.8134 9.9446 54.5918 9.9446ZM58.2108 13.6136V17.5H56.9366V10.9545H58.1596V12.0199H58.2406C58.3912 11.6733 58.627 11.3949 58.948 11.1847C59.2718 10.9744 59.6795 10.8693 60.171 10.8693C60.617 10.8693 61.0076 10.9631 61.3429 11.1506C61.6781 11.3352 61.938 11.6108 62.1227 11.9773C62.3074 12.3437 62.3997 12.7969 62.3997 13.3366V17.5H61.1255V13.4901C61.1255 13.0156 61.002 12.6449 60.7548 12.3778C60.5076 12.108 60.1681 11.973 59.7363 11.973C59.4409 11.973 59.1781 12.0369 58.948 12.1648C58.7207 12.2926 58.5403 12.4801 58.4068 12.7273C58.2761 12.9716 58.2108 13.267 58.2108 13.6136ZM67.3865 17.5V8.77273H70.5826C71.2019 8.77273 71.7147 8.875 72.1209 9.07955C72.5272 9.28125 72.8311 9.5554 73.0328 9.90199C73.2346 10.2457 73.3354 10.6335 73.3354 11.0653C73.3354 11.429 73.2686 11.7358 73.1351 11.9858C73.0016 12.233 72.8226 12.4318 72.5982 12.5824C72.3766 12.7301 72.1323 12.8381 71.8652 12.9062V12.9915C72.155 13.0057 72.4377 13.0994 72.7132 13.2727C72.9917 13.4432 73.2218 13.6861 73.4036 14.0014C73.5854 14.3168 73.6763 14.7003 73.6763 15.152C73.6763 15.598 73.5712 15.9986 73.361 16.3537C73.1536 16.706 72.8326 16.9858 72.3979 17.1932C71.9632 17.3977 71.4078 17.5 70.7317 17.5H67.3865ZM68.7033 16.3707H70.6039C71.2346 16.3707 71.6863 16.2486 71.959 16.0043C72.2317 15.7599 72.3681 15.4545 72.3681 15.0881C72.3681 14.8125 72.2985 14.5597 72.1593 14.3295C72.0201 14.0994 71.8212 13.9162 71.5627 13.7798C71.307 13.6435 71.003 13.5753 70.6507 13.5753H68.7033V16.3707ZM68.7033 12.5483H70.4675C70.763 12.5483 71.0286 12.4915 71.2644 12.3778C71.503 12.2642 71.6919 12.1051 71.8311 11.9006C71.9732 11.6932 72.0442 11.4489 72.0442 11.1676C72.0442 10.8068 71.9178 10.5043 71.665 10.2599C71.4121 10.0156 71.0243 9.89347 70.5016 9.89347H68.7033V12.5483ZM75.1358 17.5V10.9545H76.41V17.5H75.1358ZM75.7793 9.9446C75.5577 9.9446 75.3674 9.87074 75.2083 9.72301C75.052 9.57244 74.9739 9.39347 74.9739 9.18608C74.9739 8.97585 75.052 8.79687 75.2083 8.64915C75.3674 8.49858 75.5577 8.4233 75.7793 8.4233C76.0009 8.4233 76.1898 8.49858 76.3461 8.64915C76.5051 8.79687 76.5847 8.97585 76.5847 9.18608C76.5847 9.39347 76.5051 9.57244 76.3461 9.72301C76.1898 9.87074 76.0009 9.9446 75.7793 9.9446ZM79.296 15.2798L79.2875 13.7244H79.5091L82.117 10.9545H83.6426L80.6681 14.108H80.4679L79.296 15.2798ZM78.1241 17.5V8.77273H79.3983V17.5H78.1241ZM82.2576 17.5L79.9139 14.3892L80.7917 13.4986L83.8216 17.5H82.2576ZM84.8038 17.5V10.9545H86.0779V17.5H84.8038ZM85.4473 9.9446C85.2257 9.9446 85.0353 9.87074 84.8762 9.72301C84.72 9.57244 84.6419 9.39347 84.6419 9.18608C84.6419 8.97585 84.72 8.79687 84.8762 8.64915C85.0353 8.49858 85.2257 8.4233 85.4473 8.4233C85.6689 8.4233 85.8578 8.49858 86.014 8.64915C86.1731 8.79687 86.2527 8.97585 86.2527 9.18608C86.2527 9.39347 86.1731 9.57244 86.014 9.72301C85.8578 9.87074 85.6689 9.9446 85.4473 9.9446ZM89.0662 13.6136V17.5H87.7921V10.9545H89.0151V12.0199H89.0961C89.2466 11.6733 89.4824 11.3949 89.8034 11.1847C90.1273 10.9744 90.535 10.8693 91.0265 10.8693C91.4725 10.8693 91.8631 10.9631 92.1983 11.1506C92.5336 11.3352 92.7935 11.6108 92.9782 11.9773C93.1628 12.3437 93.2551 12.7969 93.2551 13.3366V17.5H91.981V13.4901C91.981 13.0156 91.8574 12.6449 91.6103 12.3778C91.3631 12.108 91.0236 11.973 90.5918 11.973C90.2963 11.973 90.0336 12.0369 89.8034 12.1648C89.5762 12.2926 89.3958 12.4801 89.2623 12.7273C89.1316 12.9716 89.0662 13.267 89.0662 13.6136ZM97.7083 20.0909C97.1884 20.0909 96.7409 20.0227 96.3659 19.8864C95.9938 19.75 95.6898 19.5696 95.454 19.3452C95.2182 19.1207 95.0421 18.875 94.9256 18.608L96.0208 18.1562C96.0975 18.2812 96.1998 18.4134 96.3276 18.5526C96.4583 18.6946 96.6344 18.8153 96.856 18.9148C97.0804 19.0142 97.3688 19.0639 97.7211 19.0639C98.204 19.0639 98.6032 18.946 98.9185 18.7102C99.2338 18.4773 99.3915 18.1051 99.3915 17.5938V16.3068H99.3105C99.2338 16.446 99.123 16.6009 98.9782 16.7713C98.8361 16.9418 98.6401 17.0895 98.3901 17.2145C98.1401 17.3395 97.8148 17.402 97.4142 17.402C96.8972 17.402 96.4313 17.2812 96.0165 17.0398C95.6046 16.7955 95.2779 16.4361 95.0364 15.9616C94.7978 15.4844 94.6784 14.8977 94.6784 14.2017C94.6784 13.5057 94.7963 12.9091 95.0321 12.4119C95.2708 11.9148 95.5975 11.5341 96.0123 11.2699C96.427 11.0028 96.8972 10.8693 97.4228 10.8693C97.829 10.8693 98.1571 10.9375 98.4071 11.0739C98.6571 11.2074 98.8517 11.3636 98.9909 11.5426C99.133 11.7216 99.2424 11.8793 99.3191 12.0156H99.4128V10.9545H100.661V17.6449C100.661 18.2074 100.531 18.669 100.269 19.0298C100.008 19.3906 99.6543 19.6577 99.2083 19.831C98.7651 20.0043 98.2651 20.0909 97.7083 20.0909ZM97.6955 16.3452C98.062 16.3452 98.3716 16.2599 98.6245 16.0895C98.8801 15.9162 99.0733 15.669 99.204 15.348C99.3375 15.0241 99.4043 14.6364 99.4043 14.1847C99.4043 13.7443 99.339 13.3565 99.2083 13.0213C99.0776 12.6861 98.8858 12.4247 98.633 12.2372C98.3801 12.0469 98.0676 11.9517 97.6955 11.9517C97.312 11.9517 96.9924 12.0511 96.7367 12.25C96.481 12.446 96.2878 12.7131 96.1571 13.0511C96.0293 13.3892 95.9654 13.767 95.9654 14.1847C95.9654 14.6136 96.0307 14.9901 96.1614 15.3139C96.2921 15.6378 96.4853 15.8906 96.7409 16.0724C96.9995 16.2543 97.3176 16.3452 97.6955 16.3452Z" fill="#14578E"/>
</svg>
