<svg width="75" height="26" viewBox="0 0 75 26" fill="none" xmlns="http://www.w3.org/2000/svg">
<rect x="0.5" y="1" width="74" height="24" rx="4.5" fill="#D9F9E7"/>
<rect x="0.5" y="1" width="74" height="24" rx="4.5" stroke="#A2DDBE"/>
<path d="M10.3455 8.77273H11.9435L14.7219 15.5568H14.8242L17.6026 8.77273H19.2006V17.5H17.9478V11.1847H17.8668L15.293 17.4872H14.2532L11.6793 11.1804H11.5984V17.5H10.3455V8.77273ZM25.1591 14.7855V10.9545H26.4375V17.5H25.1847V16.3665H25.1165C24.9659 16.7159 24.7244 17.0071 24.392 17.2401C24.0625 17.4702 23.652 17.5852 23.1605 17.5852C22.7401 17.5852 22.3679 17.4929 22.044 17.3082C21.723 17.1207 21.4702 16.8438 21.2855 16.4773C21.1037 16.1108 21.0128 15.6577 21.0128 15.1179V10.9545H22.2869V14.9645C22.2869 15.4105 22.4105 15.7656 22.6577 16.0298C22.9048 16.294 23.2259 16.4261 23.6207 16.4261C23.8594 16.4261 24.0966 16.3665 24.3324 16.2472C24.571 16.1278 24.7685 15.9474 24.9247 15.706C25.0838 15.4645 25.1619 15.1577 25.1591 14.7855ZM29.4237 8.77273V17.5H28.1495V8.77273H29.4237ZM34.1932 10.9545V11.9773H30.6179V10.9545H34.1932ZM31.5767 9.38636H32.8509V15.5781C32.8509 15.8253 32.8878 16.0114 32.9616 16.1364C33.0355 16.2585 33.1307 16.3423 33.2472 16.3878C33.3665 16.4304 33.4957 16.4517 33.6349 16.4517C33.7372 16.4517 33.8267 16.4446 33.9034 16.4304C33.9801 16.4162 34.0398 16.4048 34.0824 16.3963L34.3125 17.4489C34.2386 17.4773 34.1335 17.5057 33.9972 17.5341C33.8608 17.5653 33.6903 17.5824 33.4858 17.5852C33.1506 17.5909 32.8381 17.5312 32.5483 17.4062C32.2585 17.2812 32.0241 17.0881 31.8452 16.8267C31.6662 16.5653 31.5767 16.2372 31.5767 15.8423V9.38636ZM35.6026 17.5V10.9545H36.8768V17.5H35.6026ZM36.2461 9.9446C36.0245 9.9446 35.8342 9.87074 35.6751 9.72301C35.5188 9.57244 35.4407 9.39347 35.4407 9.18608C35.4407 8.97585 35.5188 8.79687 35.6751 8.64915C35.8342 8.49858 36.0245 8.4233 36.2461 8.4233C36.4677 8.4233 36.6566 8.49858 36.8129 8.64915C36.9719 8.79687 37.0515 8.97585 37.0515 9.18608C37.0515 9.39347 36.9719 9.57244 36.8129 9.72301C36.6566 9.87074 36.4677 9.9446 36.2461 9.9446ZM42.4474 13.2599V14.3636H38.5781V13.2599H42.4474ZM49.8601 8.77273H51.1811V14.5128C51.1811 15.1236 51.0376 15.6648 50.7507 16.1364C50.4638 16.6051 50.0604 16.9744 49.5405 17.2443C49.0206 17.5114 48.4112 17.6449 47.7124 17.6449C47.0163 17.6449 46.4084 17.5114 45.8885 17.2443C45.3686 16.9744 44.9652 16.6051 44.6783 16.1364C44.3913 15.6648 44.2479 15.1236 44.2479 14.5128V8.77273H45.5646V14.4062C45.5646 14.8011 45.6513 15.152 45.8246 15.4588C46.0007 15.7656 46.2493 16.0071 46.5703 16.1832C46.8913 16.3565 47.272 16.4432 47.7124 16.4432C48.1555 16.4432 48.5376 16.3565 48.8587 16.1832C49.1825 16.0071 49.4297 15.7656 49.6001 15.4588C49.7734 15.152 49.8601 14.8011 49.8601 14.4062V8.77273ZM57.8981 12.5526L56.7433 12.7571C56.695 12.6094 56.6183 12.4687 56.5131 12.3352C56.4109 12.2017 56.2717 12.0923 56.0955 12.0071C55.9194 11.9219 55.6992 11.8793 55.435 11.8793C55.0742 11.8793 54.7731 11.9602 54.5316 12.1222C54.2901 12.2812 54.1694 12.4872 54.1694 12.7401C54.1694 12.9588 54.2504 13.1349 54.4123 13.2685C54.5742 13.402 54.8356 13.5114 55.1964 13.5966L56.2362 13.8352C56.8384 13.9744 57.2873 14.1889 57.5827 14.4787C57.8782 14.7685 58.0259 15.1449 58.0259 15.608C58.0259 16 57.9123 16.3494 57.685 16.6562C57.4606 16.9602 57.1467 17.1989 56.7433 17.3722C56.3427 17.5455 55.8782 17.6321 55.3498 17.6321C54.6168 17.6321 54.0188 17.4759 53.5558 17.1634C53.0927 16.848 52.8086 16.4006 52.7035 15.821L53.935 15.6335C54.0117 15.9545 54.1694 16.1974 54.408 16.3622C54.6467 16.5241 54.9577 16.6051 55.3413 16.6051C55.7589 16.6051 56.0927 16.5185 56.3427 16.3452C56.5927 16.169 56.7177 15.9545 56.7177 15.7017C56.7177 15.4972 56.641 15.3253 56.4876 15.1861C56.337 15.0469 56.1055 14.9418 55.793 14.8707L54.685 14.6278C54.0742 14.4886 53.6225 14.267 53.3299 13.9631C53.0401 13.6591 52.8952 13.2741 52.8952 12.8082C52.8952 12.4219 53.0032 12.0838 53.2191 11.794C53.435 11.5043 53.7333 11.2784 54.114 11.1165C54.4947 10.9517 54.9308 10.8693 55.4222 10.8693C56.1296 10.8693 56.6864 11.0227 57.0927 11.3295C57.4989 11.6335 57.7674 12.0412 57.8981 12.5526ZM62.2479 17.6321C61.603 17.6321 61.0476 17.4943 60.5817 17.2188C60.1186 16.9403 59.7607 16.5497 59.5078 16.0469C59.2578 15.5412 59.1328 14.9489 59.1328 14.2699C59.1328 13.5994 59.2578 13.0085 59.5078 12.4972C59.7607 11.9858 60.1129 11.5866 60.5646 11.2997C61.0192 11.0128 61.5504 10.8693 62.1584 10.8693C62.5277 10.8693 62.8857 10.9304 63.2322 11.0526C63.5788 11.1747 63.8899 11.3665 64.1655 11.6278C64.4411 11.8892 64.6584 12.2287 64.8175 12.6463C64.9766 13.0611 65.0561 13.5653 65.0561 14.1591V14.6108H59.853V13.6562H63.8075C63.8075 13.321 63.7393 13.0241 63.603 12.7656C63.4666 12.5043 63.2749 12.2983 63.0277 12.1477C62.7834 11.9972 62.4964 11.9219 62.1669 11.9219C61.8089 11.9219 61.4964 12.0099 61.2294 12.1861C60.9652 12.3594 60.7607 12.5866 60.6158 12.8679C60.4737 13.1463 60.4027 13.4489 60.4027 13.7756V14.5213C60.4027 14.9588 60.4794 15.331 60.6328 15.6378C60.7891 15.9446 61.0064 16.179 61.2848 16.3409C61.5632 16.5 61.8885 16.5795 62.2607 16.5795C62.5021 16.5795 62.7223 16.5455 62.9212 16.4773C63.12 16.4062 63.2919 16.3011 63.4368 16.1619C63.5817 16.0227 63.6925 15.8509 63.7692 15.6463L64.9751 15.8636C64.8786 16.2187 64.7053 16.5298 64.4553 16.7969C64.2081 17.0611 63.897 17.267 63.522 17.4148C63.1499 17.5597 62.7251 17.6321 62.2479 17.6321Z" fill="#356C58"/>
</svg>
