<?xml version="1.0" encoding="utf-8"?>
<!-- Generator: Adobe Illustrator 27.2.0, SVG Export Plug-In . SVG Version: 6.00 Build 0)  -->
<svg version="1.1" id="Layer_1" xmlns="http://www.w3.org/2000/svg" xmlns:xlink="http://www.w3.org/1999/xlink" x="0px" y="0px"
	 viewBox="0 0 40 40" style="enable-background:new 0 0 40 40;" xml:space="preserve">
<style type="text/css">
	.st0{fill:#FFFFFF;}
	.st1{fill:none;stroke:#CCCCCC;}
	.st2{display:none;}
	.st3{fill:#191919;}
</style>
<path class="st0" d="M8,0.5h24c4.1,0,7.5,3.4,7.5,7.5v24c0,4.1-3.4,7.5-7.5,7.5H8c-4.1,0-7.5-3.4-7.5-7.5V8C0.5,3.9,3.9,0.5,8,0.5z"
	/>
<path class="st1" d="M8,0.5h24c4.1,0,7.5,3.4,7.5,7.5v24c0,4.1-3.4,7.5-7.5,7.5H8c-4.1,0-7.5-3.4-7.5-7.5V8C0.5,3.9,3.9,0.5,8,0.5z"
	/>
<path class="st2" d="M24.9,16.9L27,19h-6v-6l2.1,2.1l2.4-2.4c0.2-0.2,0.4-0.3,0.7-0.3c0.3,0,0.5,0.1,0.7,0.3l0.4,0.4
	c0.2,0.2,0.3,0.4,0.3,0.7c0,0.3-0.1,0.5-0.3,0.7L24.9,16.9z M15.1,16.9L13,19h6v-6l-2.1,2.1l-2.4-2.4c-0.2-0.2-0.4-0.3-0.7-0.3
	c-0.3,0-0.5,0.1-0.7,0.3l-0.4,0.4c-0.2,0.2-0.3,0.4-0.3,0.7c0,0.3,0.1,0.5,0.3,0.7L15.1,16.9z M19,21v6l-2.1-2.1l-2.4,2.4
	c-0.2,0.2-0.4,0.3-0.7,0.3s-0.5-0.1-0.7-0.3l-0.4-0.4c-0.2-0.2-0.3-0.4-0.3-0.7s0.1-0.5,0.3-0.7l2.4-2.4L13,21H19z M21,21h6
	l-2.1,2.1l2.4,2.4c0.2,0.2,0.3,0.4,0.3,0.7s-0.1,0.5-0.3,0.7l-0.4,0.4c-0.2,0.2-0.4,0.3-0.7,0.3c-0.3,0-0.5-0.1-0.7-0.3l-2.4-2.4
	L21,27V21z"/>
<path class="st3" d="M28.6,21.3v4.9c0,1.6-0.7,2.2-2.3,2.2h-5v-0.9l2.7-1.3l-3.6-4.9l0.9-0.9l5,3.6l1.4-2.7H28.6z M12.3,21.3
	l1.4,2.7l5-3.6l0.9,0.9l-3.6,4.9l2.7,1.3v0.9h-5c-1.6,0-2.3-0.7-2.3-2.2v-4.9H12.3z M18.6,11.6v0.9l-2.7,1.3l3.6,4.9l-0.9,0.9
	l-5-3.6l-1.4,2.7h-0.9v-4.9c0-1.6,0.7-2.2,2.3-2.2H18.6z M28.6,13.8c0-1.6-0.7-2.2-2.3-2.2h-5v0.9l2.7,1.3l-3.6,4.9l0.9,0.9l5-3.6
	l1.4,2.7h0.9V13.8z"/>
</svg>
