<?xml version="1.0" encoding="utf-8"?>
<!-- Generator: Adobe Illustrator 27.2.0, SVG Export Plug-In . SVG Version: 6.00 Build 0)  -->
<svg version="1.1" id="Layer_1" xmlns="http://www.w3.org/2000/svg" xmlns:xlink="http://www.w3.org/1999/xlink" x="0px" y="0px"
	 viewBox="0 0 132.2 43" style="enable-background:new 0 0 132.2 43;" xml:space="preserve">
<style type="text/css">
	.st0{fill:#FFFFFF;filter:url(#Adobe_OpacityMaskFilter);}
	.st1{mask:url(#mask0_450_1819_00000029735156513349164280000005879155125612711085_);}
	.st2{fill:#BED630;}
	.st3{fill:#678442;}
</style>
<defs>
	<filter id="Adobe_OpacityMaskFilter" filterUnits="userSpaceOnUse" x="90.4" y="1.8" width="37.7" height="51.5">
		<feColorMatrix  type="matrix" values="1 0 0 0 0  0 1 0 0 0  0 0 1 0 0  0 0 0 1 0"/>
	</filter>
</defs>
<mask maskUnits="userSpaceOnUse" x="90.4" y="1.8" width="37.7" height="51.5" id="mask0_450_1819_00000029735156513349164280000005879155125612711085_">
	<path class="st0" d="M113.2,56.4h18v-69h-18V56.4z"/>
</mask>
<g class="st1">
	<path class="st2" d="M128.1,15c0,0,0-0.1,0-0.1c-0.1-0.2-0.1-0.4-0.2-0.5c-0.7-0.8-1.3-1.7-2-2.5c-0.6-0.7-1-1.5-1.2-2.4
		c-0.2-0.7-0.2-1.4-0.8-1.9c-0.1-0.1-0.1-0.3-0.1-0.4c-0.1-0.6-0.3-0.6-0.7-0.6c0-0.1-0.1-0.1-0.1-0.2c-0.1-0.2-0.2-0.5-0.4-0.7
		c-0.1-0.2-0.2-0.4-0.4-0.6c-0.1-0.2-0.3-0.4-0.5-0.6c-0.3-0.4-0.6-0.6-1-0.9c-0.8-0.7-1.7-1.1-2.6-1.5c-0.2-0.1-0.5-0.2-0.7-0.2
		c-0.1,0-0.3,0-0.3,0.1c0,0.2,0,0.2,0.2,0.3c0.1,0.1,0.4,0.2,0.5,0.3c0.2,0.1,0.4,0.3,0.6,0.4c0.4,0.4,0.8,0.7,1.1,1.1
		c0.2,0.2,0.3,0.4,0.5,0.6c0.1,0.2,0.2,0.4,0.4,0.6c-0.3-0.3-0.6-0.6-1-1c-0.3-0.3-0.7-0.5-1-0.7c-0.4-0.2-0.9-0.4-1.3-0.6
		c-0.5-0.1-0.9-0.3-1.4-0.4c-0.3-0.1-0.5-0.1-0.8-0.2c-0.3-0.1-0.5-0.2-0.7,0s0.2,0.4,0.3,0.5c0.2,0.1,0.4,0.1,0.6,0.2
		c0.2,0.1,0.5,0.1,0.7,0.2c0.3,0.1,0.5,0.3,0.8,0.4c0.2,0.1,0.4,0.3,0.6,0.5c0.2,0.1,0.3,0.3,0.5,0.5c0.3,0.3,0.7,0.7,0.9,1.1
		s0.4,0.8,0.6,1.3c-0.4,0.2-0.8,0.4-1.1,0.6c-0.6,0.4-1.1,0.9-1.6,1.3c-0.2,0.2-0.3,0.4-0.4,0.6c-0.3,0.9-0.5,1.8-1.2,2.5
		c-0.4,0.4-0.8,0.9-1.2,1.4c-0.1,0.1-0.2,0.3-0.2,0.5c0,0.8,0,1.6,0,2.4c0,0.3-0.1,0.5-0.3,0.5c-1,0.3-1.7,1-2.1,1.9
		c0,0,0,0.1,0,0.1c-0.1,0.1-0.2,0.3-0.4,0.3c-0.5,0.2-1,0.4-1.5,0.7c-1.5,0.9-3,1.8-4.5,2.8c-0.1,0.1-0.3,0.2-0.4,0.2
		c-1.7,0.6-3.4,1.2-5.1,1.8c-1.4,0.5-2.9,0.8-4.1,1.8c-0.3,0.2-0.7,0.5-0.9,0.8c-0.4,0.8-0.9,1.3-1.6,1.8c-0.3,0.2-0.5,0.4-0.7,0.6
		c-0.1,0.1-0.2,0.2-0.3,0.4c-0.1,0.8-0.6,1.5-1,2.2c-0.1,0.2-0.2,0.4-0.2,0.7c-0.1,0.3,0,0.7-0.1,1.1c-0.1,0.5-0.1,1,0.1,1.5
		c0.2,0.7,0.5,1.4,0.6,2.2c0.1,0.5,0.2,1,0.2,1.6c0.2-0.7,0.5-1.3,0.7-2c0.3,0.3,0.5,0.6,0.7,0.9c0.5,0.9,0.4,1.8,0.2,2.7
		c-0.1,0.6-0.3,1.3-0.4,1.9c-0.1,0.9,0.2,1.7,0.4,2.5c0,0.2,0.1,0.4,0.3,0.5c0.6,0.7,1.2,1.4,1.8,2.1c0.8,0.9,1.5,1.7,2,2.8
		c0.2,0.3,0.3,0.7,0.5,1c0.1,0.2,0.2,0.3,0.4,0.4c0.5,0.3,0.8,0.6,1,1.2l1.2-2.8c-0.6-0.6-1.4-1-1.7-1.9c0,0,0-0.1-0.1-0.1
		c-0.6-1-0.5-2.1,0-3.1c0.3-0.6,0.5-1.2,0.8-1.9c0,0,0,0,0.1,0c0,0.3,0.1,0.6,0.1,0.9c0.1,0.9,0.2,1.8,0.3,2.7
		c0.2,0.7,0.5,1.3,0.7,2c0.1,0.2,0.2,0.5,0,0.8c-0.1,0.1-0.1,0.1-0.1,0.2l5-0.6l3.2,0.2l2.5,3.5c0-0.8-0.4-1.3-0.9-2
		c-0.1-0.1-0.1-0.1-0.1-0.1c0,0,0-0.1,0-0.2c0,0-0.1-0.4-0.1-0.8c0-0.2-0.1-0.5,0.1-0.8c0.5-0.8,0.6-1.1,0.6-1.2
		c0.6-1.7,1.2-3.4,1.8-5.1c0.1-0.2,0.2-0.3,0.3-0.4c0.5-0.6,1.1-1.2,1.2-2c0.1-1,0.6-1.9,1.2-2.7c0.1-0.1,0.2-0.3,0.3-0.3
		c0.8-0.3,1.2-0.9,1.3-1.7c0-0.2,0.1-0.3,0.2-0.5c0.4-1.3,1-2.6,1.1-4.1c0.1-1.7,1.8-3,2.2-4.8c0.2-1-0.4-2.2-0.2-3.1
		c0.4-1.3,0.8-2.6,1.1-3.9c0.1-0.2,0.1-0.5,0-0.8c0-0.4-0.1-0.9-0.2-1.3c-0.2-0.6,0.1-1.1,0.3-1.7c0.5,0.3,0.9,0.4,1.3,0.7
		c0.7,0.5,1.3,0.5,2.1,0.3c0.2-0.1,0.4,0,0.5,0.1c0.4,0.3,1.2,0.3,1.7,0.1C127.9,16.6,128.3,15.9,128.1,15L128.1,15z M106.3,43
		c-0.9,1.6-1.6,3.3-2.1,5c-0.2,0.5-0.6,0.9-0.9,1.2c-0.4-0.3-0.6-0.7-0.7-1.2c-0.1-1.2-0.2-2.3-0.3-3.5c0-1,0-2.1,0-3.1
		c0-0.1,0.1-0.3,0.1-0.4c0.3-0.7,0.7-1.4,1.1-2.1c0-0.1,0.2-0.2,0.2-0.2c1.1-0.1,2.3-0.3,3.4-0.4c0.1,0,0.1,0,0.2,0
		c0.1,0.6,0.3,1.2-0.1,1.8c-0.5,0.7-0.6,1.5-0.7,2.3C106.4,42.7,106.4,42.9,106.3,43z M112.1,37.5c-0.6,2-1.1,4.1-1.7,6.1
		c0,0.1-0.1,0.3-0.2,0.4c-0.7,1.1-1.2,2.3-1.7,3.5c0,0.1-0.5,1.4-0.5,1.5c-0.2-0.2-0.8-0.8-0.9-1c-0.2-0.2-0.1-1,0-1.4
		c0-0.2,0.4-0.6,0.5-0.8c0.3-0.8,0.5-1.6,0.9-2.4c0.2-0.5,0.6-0.9,0.9-1.3c0.1-0.2,0.3-0.5,0.4-0.7c0.3-1.3,0.6-2.6,0.9-3.9
		c0.1-0.3,0.2-0.4,0.4-0.4c0.4,0,0.8-0.1,1.2-0.2C112.2,37.1,112.2,37.3,112.1,37.5L112.1,37.5z"/>
</g>
<path class="st3" d="M10.9,14.6c-0.1-0.3-0.2-0.7-0.4-0.9c-0.2-0.3-0.4-0.5-0.7-0.7c-0.3-0.2-0.5-0.3-0.9-0.4
	c-0.3-0.1-0.7-0.1-1.1-0.1c-0.7,0-1.4,0.2-2,0.6c-0.6,0.4-1,0.9-1.3,1.6c-0.3,0.7-0.5,1.6-0.5,2.6c0,1,0.2,1.9,0.5,2.6
	c0.3,0.7,0.7,1.3,1.3,1.6c0.6,0.4,1.2,0.6,2,0.6c0.7,0,1.3-0.1,1.8-0.4c0.5-0.3,0.9-0.6,1.1-1.1c0.3-0.5,0.4-1,0.4-1.6l0.6,0.1H8.1
	v-2.3h6.1v1.8c0,1.3-0.3,2.4-0.8,3.3c-0.5,0.9-1.3,1.6-2.2,2.1c-0.9,0.5-2,0.7-3.3,0.7c-1.4,0-2.6-0.3-3.6-0.9
	c-1-0.6-1.8-1.5-2.4-2.6C1.3,20,1,18.7,1,17.2C1,16,1.2,15,1.5,14c0.3-0.9,0.8-1.7,1.4-2.4c0.6-0.6,1.3-1.1,2.2-1.5
	C6,9.9,6.9,9.7,7.8,9.7c0.8,0,1.6,0.1,2.3,0.4c0.7,0.2,1.3,0.6,1.9,1c0.6,0.4,1,1,1.4,1.6c0.4,0.6,0.6,1.3,0.7,2H10.9z M16.4,24.4
	V13.5h2.9v1.9h0.1c0.2-0.7,0.5-1.2,1-1.5c0.5-0.4,1-0.5,1.6-0.5c0.2,0,0.3,0,0.5,0c0.2,0,0.3,0,0.5,0.1v2.7c-0.1,0-0.3-0.1-0.6-0.1
	c-0.3,0-0.5,0-0.7,0c-0.4,0-0.8,0.1-1.2,0.3c-0.3,0.2-0.6,0.5-0.8,0.8c-0.2,0.3-0.3,0.7-0.3,1.2v6.2H16.4z M29.1,24.7
	c-1.1,0-2.1-0.2-2.9-0.7c-0.8-0.5-1.4-1.1-1.9-1.9c-0.4-0.8-0.7-1.8-0.7-3c0-1.1,0.2-2.1,0.7-3c0.4-0.8,1-1.5,1.8-2
	c0.8-0.5,1.7-0.7,2.8-0.7c0.7,0,1.4,0.1,2,0.3c0.6,0.2,1.2,0.6,1.6,1c0.5,0.5,0.8,1,1.1,1.7c0.3,0.7,0.4,1.5,0.4,2.4v0.8h-9.2v-1.9
	h6.4c0-0.4-0.1-0.8-0.3-1.2c-0.2-0.3-0.5-0.6-0.8-0.8c-0.3-0.2-0.7-0.3-1.2-0.3c-0.5,0-0.9,0.1-1.2,0.3c-0.4,0.2-0.6,0.5-0.8,0.8
	c-0.2,0.4-0.3,0.7-0.3,1.2v1.8c0,0.5,0.1,1,0.3,1.4c0.2,0.4,0.5,0.7,0.9,0.9c0.4,0.2,0.8,0.3,1.3,0.3c0.3,0,0.6,0,0.9-0.1
	c0.3-0.1,0.5-0.2,0.7-0.4c0.2-0.2,0.4-0.4,0.5-0.7l2.8,0.2c-0.1,0.7-0.4,1.3-0.9,1.8c-0.4,0.5-1,0.9-1.7,1.2
	C30.8,24.5,30,24.7,29.1,24.7z M41,24.7c-1.1,0-2.1-0.2-2.9-0.7c-0.8-0.5-1.4-1.1-1.9-1.9c-0.4-0.8-0.7-1.8-0.7-3
	c0-1.1,0.2-2.1,0.7-3c0.4-0.8,1-1.5,1.8-2c0.8-0.5,1.7-0.7,2.8-0.7c0.7,0,1.4,0.1,2,0.3c0.6,0.2,1.2,0.6,1.6,1
	c0.5,0.5,0.8,1,1.1,1.7c0.3,0.7,0.4,1.5,0.4,2.4v0.8h-9.2v-1.9h6.4c0-0.4-0.1-0.8-0.3-1.2c-0.2-0.3-0.5-0.6-0.8-0.8
	c-0.3-0.2-0.7-0.3-1.2-0.3c-0.5,0-0.9,0.1-1.2,0.3c-0.4,0.2-0.6,0.5-0.8,0.8c-0.2,0.4-0.3,0.7-0.3,1.2v1.8c0,0.5,0.1,1,0.3,1.4
	c0.2,0.4,0.5,0.7,0.9,0.9c0.4,0.2,0.8,0.3,1.3,0.3c0.3,0,0.6,0,0.9-0.1c0.3-0.1,0.5-0.2,0.7-0.4c0.2-0.2,0.4-0.4,0.5-0.7l2.8,0.2
	c-0.1,0.7-0.4,1.3-0.9,1.8c-0.4,0.5-1,0.9-1.7,1.2C42.7,24.5,41.9,24.7,41,24.7z M51,18.1v6.3h-3V13.5h2.9v1.9H51
	c0.2-0.6,0.6-1.1,1.2-1.5c0.6-0.4,1.3-0.6,2.1-0.6c0.8,0,1.4,0.2,2,0.5c0.6,0.3,1,0.8,1.3,1.4c0.3,0.6,0.5,1.3,0.5,2.2v6.9h-3V18
	c0-0.7-0.2-1.2-0.5-1.6c-0.3-0.4-0.8-0.6-1.4-0.6c-0.4,0-0.8,0.1-1.1,0.3c-0.3,0.2-0.5,0.4-0.7,0.8C51.1,17.3,51,17.7,51,18.1z
	 M74.8,14.6c-0.1-0.3-0.2-0.7-0.4-0.9c-0.2-0.3-0.4-0.5-0.7-0.7c-0.3-0.2-0.5-0.3-0.9-0.4c-0.3-0.1-0.7-0.1-1.1-0.1
	c-0.7,0-1.4,0.2-2,0.6c-0.6,0.4-1,0.9-1.3,1.6c-0.3,0.7-0.5,1.6-0.5,2.6c0,1,0.2,1.9,0.5,2.6c0.3,0.7,0.7,1.3,1.3,1.6
	c0.6,0.4,1.2,0.6,2,0.6c0.7,0,1.3-0.1,1.8-0.4c0.5-0.3,0.9-0.6,1.1-1.1c0.3-0.5,0.4-1,0.4-1.6l0.6,0.1h-3.8v-2.3H78v1.8
	c0,1.3-0.3,2.4-0.8,3.3c-0.5,0.9-1.3,1.6-2.2,2.1c-0.9,0.5-2,0.7-3.3,0.7c-1.4,0-2.6-0.3-3.6-0.9c-1-0.6-1.8-1.5-2.4-2.6
	c-0.6-1.1-0.9-2.4-0.9-4c0-1.2,0.2-2.2,0.5-3.2c0.3-0.9,0.8-1.7,1.4-2.4c0.6-0.6,1.3-1.1,2.2-1.5c0.8-0.3,1.7-0.5,2.7-0.5
	c0.8,0,1.6,0.1,2.3,0.4c0.7,0.2,1.3,0.6,1.9,1c0.6,0.4,1,1,1.4,1.6c0.4,0.6,0.6,1.3,0.7,2H74.8z M85.2,24.7c-1.1,0-2.1-0.2-2.9-0.7
	c-0.8-0.5-1.4-1.1-1.9-2c-0.4-0.8-0.7-1.8-0.7-2.9c0-1.1,0.2-2.1,0.7-3c0.4-0.8,1.1-1.5,1.9-2c0.8-0.5,1.8-0.7,2.9-0.7
	s2.1,0.2,2.9,0.7c0.8,0.5,1.4,1.1,1.9,2c0.4,0.8,0.7,1.8,0.7,3c0,1.1-0.2,2.1-0.7,2.9c-0.4,0.8-1.1,1.5-1.9,2
	C87.3,24.4,86.3,24.7,85.2,24.7z M85.2,22.3c0.5,0,0.9-0.1,1.3-0.4c0.3-0.3,0.6-0.7,0.8-1.2c0.2-0.5,0.3-1.1,0.3-1.7
	c0-0.6-0.1-1.2-0.3-1.7c-0.2-0.5-0.4-0.9-0.8-1.2c-0.3-0.3-0.8-0.4-1.3-0.4c-0.5,0-0.9,0.1-1.3,0.4c-0.3,0.3-0.6,0.7-0.8,1.2
	c-0.2,0.5-0.3,1.1-0.3,1.7c0,0.6,0.1,1.2,0.3,1.7c0.2,0.5,0.4,0.9,0.8,1.2C84.3,22.2,84.7,22.3,85.2,22.3z M95.7,24.6
	c-0.7,0-1.3-0.1-1.9-0.4c-0.5-0.2-1-0.6-1.3-1.1c-0.3-0.5-0.5-1.1-0.5-1.8c0-0.6,0.1-1.1,0.3-1.5c0.2-0.4,0.5-0.7,0.9-1
	c0.4-0.3,0.8-0.4,1.3-0.6c0.5-0.1,1-0.2,1.5-0.3c0.6-0.1,1.1-0.1,1.5-0.2c0.4-0.1,0.7-0.2,0.8-0.3c0.2-0.1,0.3-0.3,0.3-0.5v0
	c0-0.4-0.1-0.8-0.4-1c-0.3-0.2-0.7-0.4-1.2-0.4c-0.5,0-1,0.1-1.3,0.4c-0.3,0.2-0.5,0.5-0.6,0.9l-2.8-0.2c0.1-0.7,0.4-1.2,0.8-1.7
	c0.4-0.5,1-0.9,1.6-1.1c0.7-0.3,1.4-0.4,2.3-0.4c0.6,0,1.2,0.1,1.7,0.2c0.6,0.1,1.1,0.4,1.5,0.7c0.4,0.3,0.8,0.7,1,1.2
	c0.3,0.5,0.4,1,0.4,1.7v7.4h-2.9v-1.5h-0.1c-0.2,0.3-0.4,0.6-0.7,0.9c-0.3,0.3-0.6,0.5-1.1,0.6C96.7,24.6,96.2,24.6,95.7,24.6z
	 M96.5,22.6c0.4,0,0.8-0.1,1.2-0.3c0.3-0.2,0.6-0.4,0.8-0.7c0.2-0.3,0.3-0.6,0.3-1v-1.2c-0.1,0.1-0.2,0.1-0.4,0.2
	c-0.2,0-0.3,0.1-0.5,0.1c-0.2,0-0.4,0.1-0.6,0.1c-0.2,0-0.4,0.1-0.6,0.1c-0.4,0.1-0.7,0.1-0.9,0.2c-0.3,0.1-0.5,0.3-0.6,0.5
	c-0.1,0.2-0.2,0.4-0.2,0.7c0,0.4,0.1,0.7,0.4,0.9C95.7,22.5,96.1,22.6,96.5,22.6z M110,13.5v2.3h-6.6v-2.3H110z M104.9,10.9h3v10.2
	c0,0.3,0,0.5,0.1,0.7c0.1,0.2,0.2,0.3,0.4,0.3c0.2,0.1,0.3,0.1,0.5,0.1c0.1,0,0.3,0,0.4,0c0.1,0,0.3,0,0.3-0.1l0.5,2.3
	c-0.2,0-0.4,0.1-0.6,0.2c-0.3,0.1-0.6,0.1-1,0.1c-0.7,0-1.4-0.1-1.9-0.3c-0.5-0.2-1-0.6-1.3-1c-0.3-0.5-0.5-1.1-0.4-1.8V10.9z"/>
<path class="st3" d="M7.1,31.5l0.2-1h6.2l-0.2,1h-2.5l-1.2,7H8.5l1.2-7H7.1z M12.8,38.4l1-6H15l-0.2,1h0.1c0.2-0.3,0.4-0.6,0.7-0.8
	c0.3-0.2,0.6-0.3,1-0.3c0.1,0,0.2,0,0.3,0c0.1,0,0.2,0,0.2,0l-0.2,1.1c0,0-0.1,0-0.2,0c-0.1,0-0.2,0-0.4,0c-0.3,0-0.5,0.1-0.8,0.2
	c-0.2,0.1-0.4,0.3-0.6,0.5c-0.2,0.2-0.3,0.4-0.3,0.7L14,38.4H12.8z M18.7,38.6c-0.4,0-0.7-0.1-1-0.2c-0.3-0.1-0.5-0.4-0.6-0.6
	c-0.1-0.3-0.2-0.6-0.1-1c0.1-0.3,0.2-0.6,0.3-0.8c0.2-0.2,0.4-0.4,0.6-0.5c0.2-0.1,0.5-0.2,0.8-0.3C19,35,19.3,35,19.6,35
	c0.4,0,0.7-0.1,0.9-0.1c0.2,0,0.4-0.1,0.5-0.1c0.1-0.1,0.2-0.2,0.2-0.3v0c0.1-0.3,0-0.6-0.1-0.8c-0.2-0.2-0.4-0.3-0.8-0.3
	c-0.4,0-0.7,0.1-1,0.3c-0.3,0.2-0.5,0.4-0.6,0.6l-1-0.2c0.2-0.4,0.4-0.7,0.7-0.9c0.3-0.2,0.6-0.4,1-0.5c0.3-0.1,0.7-0.2,1.1-0.2
	c0.2,0,0.5,0,0.7,0.1c0.3,0.1,0.5,0.2,0.7,0.3c0.2,0.1,0.4,0.4,0.5,0.6c0.1,0.3,0.1,0.6,0,1.1l-0.7,4h-1.1l0.1-0.8h0
	c-0.1,0.2-0.2,0.3-0.4,0.4c-0.2,0.1-0.4,0.3-0.6,0.4C19.4,38.5,19.1,38.6,18.7,38.6z M19.1,37.6c0.3,0,0.6-0.1,0.9-0.2
	c0.3-0.1,0.5-0.3,0.6-0.5c0.2-0.2,0.3-0.4,0.3-0.7l0.1-0.8c0,0-0.1,0.1-0.3,0.1c-0.1,0-0.3,0.1-0.4,0.1c-0.2,0-0.3,0-0.5,0.1
	c-0.1,0-0.3,0-0.4,0.1c-0.2,0-0.4,0.1-0.6,0.1c-0.2,0.1-0.4,0.2-0.5,0.3c-0.1,0.1-0.2,0.3-0.2,0.5c0,0.3,0,0.5,0.2,0.7
	C18.6,37.6,18.8,37.6,19.1,37.6z M23.3,38.4l1-6h1.2l-1,6H23.3z M25.1,31.5c-0.2,0-0.4-0.1-0.5-0.2c-0.1-0.1-0.2-0.3-0.2-0.5
	c0-0.2,0.1-0.4,0.2-0.5c0.2-0.1,0.3-0.2,0.5-0.2c0.2,0,0.4,0.1,0.5,0.2c0.1,0.1,0.2,0.3,0.2,0.5c0,0.2-0.1,0.4-0.2,0.5
	C25.5,31.4,25.3,31.5,25.1,31.5z M28.5,30.4l-1.3,8H26l1.3-8H28.5z M32.9,34.6l-0.2,1h-3.6l0.2-1H32.9z M33.8,38.4l1-6H36l-0.2,1
	h0.1c0.2-0.3,0.4-0.6,0.7-0.8c0.3-0.2,0.6-0.3,1-0.3c0.1,0,0.2,0,0.3,0c0.1,0,0.2,0,0.2,0l-0.2,1.1c0,0-0.1,0-0.2,0
	c-0.1,0-0.2,0-0.4,0c-0.3,0-0.5,0.1-0.8,0.2c-0.2,0.1-0.4,0.3-0.6,0.5c-0.2,0.2-0.3,0.4-0.3,0.7L35,38.4H33.8z M39.8,38.6
	c-0.4,0-0.7-0.1-1-0.2c-0.3-0.1-0.5-0.4-0.6-0.6c-0.1-0.3-0.2-0.6-0.1-1c0.1-0.3,0.2-0.6,0.3-0.8c0.2-0.2,0.4-0.4,0.6-0.5
	c0.2-0.1,0.5-0.2,0.8-0.3c0.3-0.1,0.6-0.1,0.9-0.1c0.4,0,0.7-0.1,0.9-0.1c0.2,0,0.4-0.1,0.5-0.1c0.1-0.1,0.2-0.2,0.2-0.3v0
	c0.1-0.3,0-0.6-0.1-0.8c-0.2-0.2-0.4-0.3-0.8-0.3c-0.4,0-0.7,0.1-1,0.3c-0.3,0.2-0.5,0.4-0.6,0.6l-1-0.2c0.2-0.4,0.4-0.7,0.7-0.9
	c0.3-0.2,0.6-0.4,1-0.5c0.3-0.1,0.7-0.2,1.1-0.2c0.2,0,0.5,0,0.7,0.1c0.3,0.1,0.5,0.2,0.7,0.3c0.2,0.1,0.4,0.4,0.5,0.6
	c0.1,0.3,0.1,0.6,0,1.1l-0.7,4h-1.1l0.1-0.8h0c-0.1,0.2-0.2,0.3-0.4,0.4c-0.2,0.1-0.4,0.3-0.6,0.4C40.4,38.5,40.1,38.6,39.8,38.6z
	 M40.2,37.6c0.3,0,0.6-0.1,0.9-0.2c0.3-0.1,0.5-0.3,0.6-0.5c0.2-0.2,0.3-0.4,0.3-0.7l0.1-0.8c0,0-0.1,0.1-0.3,0.1
	c-0.1,0-0.3,0.1-0.4,0.1c-0.2,0-0.3,0-0.5,0.1c-0.1,0-0.3,0-0.4,0.1c-0.2,0-0.4,0.1-0.6,0.1c-0.2,0.1-0.4,0.2-0.5,0.3
	c-0.1,0.1-0.2,0.3-0.2,0.5c0,0.3,0,0.5,0.2,0.7C39.6,37.6,39.8,37.6,40.2,37.6z M44.3,38.4l1-6h1.2l-1,6H44.3z M46.1,31.5
	c-0.2,0-0.4-0.1-0.5-0.2c-0.1-0.1-0.2-0.3-0.2-0.5c0-0.2,0.1-0.4,0.2-0.5c0.2-0.1,0.3-0.2,0.5-0.2c0.2,0,0.4,0.1,0.5,0.2
	c0.1,0.1,0.2,0.3,0.2,0.5c0,0.2-0.1,0.4-0.2,0.5C46.5,31.4,46.3,31.5,46.1,31.5z M52.3,33.9l-1.1,0.2c0-0.1-0.1-0.3-0.1-0.4
	c-0.1-0.1-0.2-0.2-0.3-0.3c-0.1-0.1-0.3-0.1-0.6-0.1c-0.3,0-0.6,0.1-0.9,0.2c-0.2,0.2-0.4,0.3-0.4,0.6c0,0.2,0,0.3,0.1,0.5
	c0.1,0.1,0.3,0.2,0.7,0.3l0.9,0.2c0.5,0.1,0.9,0.3,1.1,0.6c0.2,0.3,0.3,0.6,0.2,1c-0.1,0.4-0.2,0.7-0.5,0.9c-0.2,0.3-0.6,0.5-1,0.6
	c-0.4,0.2-0.8,0.2-1.3,0.2c-0.7,0-1.2-0.1-1.6-0.4S47,37.4,47,36.9l1.2-0.2c0,0.3,0.1,0.5,0.3,0.7c0.2,0.1,0.5,0.2,0.8,0.2
	c0.4,0,0.7-0.1,1-0.2c0.3-0.2,0.4-0.4,0.4-0.6c0-0.2,0-0.3-0.1-0.5c-0.1-0.1-0.3-0.2-0.6-0.3l-1-0.2c-0.5-0.1-0.9-0.3-1.1-0.6
	c-0.2-0.3-0.3-0.6-0.2-1.1c0.1-0.4,0.2-0.7,0.4-0.9c0.2-0.3,0.5-0.5,0.9-0.6c0.4-0.1,0.8-0.2,1.2-0.2c0.7,0,1.1,0.1,1.5,0.4
	C52.1,33.1,52.2,33.4,52.3,33.9z M55.5,38.6c-0.6,0-1.1-0.1-1.5-0.4c-0.4-0.3-0.7-0.6-0.8-1.1c-0.2-0.5-0.2-1-0.1-1.6
	c0.1-0.6,0.3-1.2,0.6-1.6c0.3-0.5,0.7-0.8,1.1-1.1c0.5-0.3,1-0.4,1.5-0.4c0.3,0,0.7,0.1,1,0.2c0.3,0.1,0.6,0.3,0.8,0.5
	c0.2,0.2,0.4,0.6,0.4,0.9c0.1,0.4,0.1,0.8,0,1.4l-0.1,0.4h-4.8l0.1-0.9h3.6c0.1-0.3,0-0.6,0-0.8c-0.1-0.2-0.2-0.4-0.4-0.6
	c-0.2-0.1-0.5-0.2-0.8-0.2c-0.3,0-0.6,0.1-0.9,0.2c-0.3,0.2-0.5,0.4-0.7,0.6c-0.2,0.3-0.3,0.5-0.3,0.8l-0.1,0.8
	c-0.1,0.4-0.1,0.8,0,1.1c0.1,0.3,0.3,0.5,0.5,0.6c0.2,0.1,0.5,0.2,0.9,0.2c0.2,0,0.4,0,0.6-0.1c0.2-0.1,0.4-0.2,0.5-0.3
	c0.2-0.1,0.3-0.3,0.4-0.5l1.1,0.2c-0.1,0.3-0.3,0.6-0.6,0.9c-0.3,0.2-0.6,0.4-0.9,0.6C56.3,38.5,55.9,38.6,55.5,38.6z M59.4,38.4
	l1-6h1.1l-0.2,1h0.1c0.2-0.3,0.4-0.6,0.7-0.8c0.3-0.2,0.6-0.3,1-0.3c0.1,0,0.2,0,0.3,0c0.1,0,0.2,0,0.2,0l-0.2,1.1c0,0-0.1,0-0.2,0
	c-0.1,0-0.2,0-0.4,0c-0.3,0-0.5,0.1-0.8,0.2c-0.2,0.1-0.4,0.3-0.6,0.5c-0.2,0.2-0.3,0.4-0.3,0.7l-0.6,3.7H59.4z M66.7,38.4l1.3-8
	h2.9c0.6,0,1.1,0.1,1.5,0.3c0.4,0.2,0.6,0.5,0.8,0.9c0.1,0.4,0.2,0.8,0.1,1.3c-0.1,0.5-0.3,0.9-0.5,1.3c-0.3,0.4-0.6,0.7-1.1,0.9
	c-0.4,0.2-1,0.3-1.6,0.3h-2l0.2-1H70c0.4,0,0.7-0.1,1-0.2c0.3-0.1,0.5-0.3,0.6-0.6c0.2-0.2,0.3-0.5,0.3-0.8c0-0.3,0-0.6,0-0.8
	c-0.1-0.2-0.2-0.4-0.4-0.6c-0.2-0.1-0.5-0.2-0.9-0.2H69l-1.2,7H66.7z M73.6,38.4l1-6h1.1l-0.2,1h0.1c0.2-0.3,0.4-0.6,0.7-0.8
	c0.3-0.2,0.6-0.3,1-0.3c0.1,0,0.2,0,0.3,0c0.1,0,0.2,0,0.2,0l-0.2,1.1c0,0-0.1,0-0.2,0c-0.1,0-0.2,0-0.4,0c-0.3,0-0.5,0.1-0.8,0.2
	c-0.2,0.1-0.4,0.3-0.6,0.5c-0.2,0.2-0.3,0.4-0.3,0.7l-0.6,3.7H73.6z M80.2,38.6c-0.6,0-1-0.1-1.4-0.4c-0.4-0.3-0.7-0.6-0.8-1.1
	c-0.2-0.5-0.2-1-0.1-1.7c0.1-0.6,0.3-1.2,0.6-1.6c0.3-0.5,0.7-0.8,1.1-1.1c0.5-0.3,1-0.4,1.5-0.4c0.6,0,1,0.1,1.4,0.4
	c0.4,0.3,0.7,0.6,0.8,1.1c0.2,0.5,0.2,1,0.1,1.7c-0.1,0.6-0.3,1.1-0.6,1.6c-0.3,0.5-0.7,0.8-1.1,1.1C81.2,38.4,80.7,38.6,80.2,38.6z
	 M80.2,37.6c0.4,0,0.7-0.1,1-0.3c0.3-0.2,0.5-0.5,0.7-0.8c0.2-0.3,0.3-0.7,0.4-1.1c0.1-0.4,0.1-0.7,0-1c-0.1-0.3-0.2-0.6-0.4-0.8
	c-0.2-0.2-0.5-0.3-0.8-0.3c-0.4,0-0.7,0.1-1,0.3c-0.3,0.2-0.5,0.5-0.7,0.8c-0.2,0.3-0.3,0.7-0.4,1.1c-0.1,0.4-0.1,0.7,0,1
	c0.1,0.3,0.2,0.6,0.4,0.8C79.6,37.5,79.9,37.6,80.2,37.6z M86.4,40.8c-0.5,0-0.9-0.1-1.2-0.2c-0.3-0.1-0.6-0.3-0.8-0.5
	c-0.2-0.2-0.3-0.4-0.4-0.7l1.1-0.4c0.1,0.1,0.1,0.2,0.2,0.4c0.1,0.1,0.2,0.2,0.4,0.3c0.2,0.1,0.4,0.1,0.8,0.1c0.4,0,0.8-0.1,1.2-0.3
	c0.3-0.2,0.5-0.6,0.6-1l0.2-1.2h-0.1c-0.1,0.1-0.2,0.3-0.4,0.4c-0.2,0.2-0.4,0.3-0.6,0.4s-0.6,0.2-0.9,0.2c-0.5,0-0.9-0.1-1.2-0.3
	c-0.3-0.2-0.6-0.6-0.7-1c-0.1-0.4-0.2-1-0.1-1.6c0.1-0.6,0.3-1.2,0.6-1.6c0.3-0.5,0.7-0.8,1.1-1c0.4-0.2,0.9-0.4,1.4-0.4
	c0.4,0,0.7,0.1,0.9,0.2c0.2,0.1,0.4,0.3,0.5,0.4c0.1,0.2,0.2,0.3,0.2,0.4h0.1l0.2-1h1.1l-1,6.1c-0.1,0.5-0.3,0.9-0.6,1.3
	c-0.3,0.3-0.7,0.6-1.1,0.7C87.4,40.7,86.9,40.8,86.4,40.8z M86.9,37.4c0.3,0,0.6-0.1,0.9-0.2c0.3-0.2,0.5-0.4,0.7-0.7
	c0.2-0.3,0.3-0.7,0.4-1.1c0.1-0.4,0.1-0.8,0-1.1c-0.1-0.3-0.2-0.5-0.4-0.7c-0.2-0.2-0.5-0.3-0.8-0.3c-0.4,0-0.7,0.1-0.9,0.3
	c-0.3,0.2-0.5,0.4-0.6,0.7c-0.2,0.3-0.3,0.7-0.3,1c-0.1,0.4-0.1,0.7,0,1c0.1,0.3,0.2,0.5,0.4,0.7C86.3,37.3,86.6,37.4,86.9,37.4z
	 M91,38.4l1-6h1.1l-0.2,1h0.1c0.2-0.3,0.4-0.6,0.7-0.8c0.3-0.2,0.6-0.3,1-0.3c0.1,0,0.2,0,0.3,0c0.1,0,0.2,0,0.2,0l-0.2,1.1
	c0,0-0.1,0-0.2,0c-0.1,0-0.2,0-0.4,0c-0.3,0-0.5,0.1-0.8,0.2c-0.2,0.1-0.4,0.3-0.6,0.5c-0.2,0.2-0.3,0.4-0.3,0.7l-0.6,3.7H91z
	 M97,38.6c-0.4,0-0.7-0.1-1-0.2c-0.3-0.1-0.5-0.4-0.6-0.6c-0.1-0.3-0.2-0.6-0.1-1c0.1-0.3,0.2-0.6,0.3-0.8c0.2-0.2,0.4-0.4,0.6-0.5
	c0.2-0.1,0.5-0.2,0.8-0.3c0.3-0.1,0.6-0.1,0.9-0.1c0.4,0,0.7-0.1,0.9-0.1c0.2,0,0.4-0.1,0.5-0.1c0.1-0.1,0.2-0.2,0.2-0.3v0
	c0.1-0.3,0-0.6-0.1-0.8c-0.2-0.2-0.4-0.3-0.8-0.3c-0.4,0-0.7,0.1-1,0.3c-0.3,0.2-0.5,0.4-0.6,0.6l-1-0.2c0.2-0.4,0.4-0.7,0.7-0.9
	c0.3-0.2,0.6-0.4,1-0.5c0.3-0.1,0.7-0.2,1.1-0.2c0.2,0,0.5,0,0.7,0.1c0.3,0.1,0.5,0.2,0.7,0.3c0.2,0.1,0.4,0.4,0.5,0.6
	c0.1,0.3,0.1,0.6,0,1.1l-0.7,4h-1.1l0.1-0.8h0c-0.1,0.2-0.2,0.3-0.4,0.4c-0.2,0.1-0.4,0.3-0.6,0.4C97.6,38.5,97.3,38.6,97,38.6z
	 M97.3,37.6c0.3,0,0.6-0.1,0.9-0.2c0.3-0.1,0.5-0.3,0.6-0.5c0.2-0.2,0.3-0.4,0.3-0.7l0.1-0.8c0,0-0.1,0.1-0.3,0.1
	c-0.1,0-0.3,0.1-0.4,0.1c-0.2,0-0.3,0-0.5,0.1c-0.1,0-0.3,0-0.4,0.1c-0.2,0-0.4,0.1-0.6,0.1c-0.2,0.1-0.4,0.2-0.5,0.3
	c-0.1,0.1-0.2,0.3-0.2,0.5c0,0.3,0,0.5,0.2,0.7C96.8,37.6,97,37.6,97.3,37.6z M101.5,38.4l1-6h1.1l-0.2,1h0.1
	c0.2-0.3,0.4-0.6,0.7-0.8c0.3-0.2,0.7-0.3,1.1-0.3c0.4,0,0.7,0.1,1,0.3c0.2,0.2,0.4,0.4,0.5,0.8h0.1c0.2-0.3,0.5-0.6,0.8-0.8
	c0.3-0.2,0.7-0.3,1.2-0.3c0.5,0,1,0.2,1.2,0.5c0.3,0.3,0.4,0.9,0.3,1.5l-0.7,4h-1.2l0.7-3.9c0.1-0.4,0-0.7-0.2-0.9
	c-0.2-0.2-0.4-0.3-0.7-0.3c-0.4,0-0.7,0.1-0.9,0.4c-0.2,0.2-0.4,0.5-0.5,0.9l-0.6,3.8H105l0.7-4c0.1-0.3,0-0.6-0.2-0.8
	c-0.2-0.2-0.4-0.3-0.7-0.3c-0.2,0-0.4,0.1-0.6,0.2c-0.2,0.1-0.4,0.3-0.5,0.5c-0.1,0.2-0.2,0.4-0.3,0.7l-0.6,3.7H101.5z"/>
</svg>
