<?xml version="1.0" encoding="utf-8"?>
<!-- Generator: Adobe Illustrator 27.2.0, SVG Export Plug-In . SVG Version: 6.00 Build 0)  -->
<svg version="1.1" id="Layer_1" xmlns="http://www.w3.org/2000/svg" xmlns:xlink="http://www.w3.org/1999/xlink" x="0px" y="0px"
	 viewBox="0 0 185 35.5" style="enable-background:new 0 0 185 35.5;" xml:space="preserve">
<style type="text/css">
	.st0{clip-path:url(#SVGID_00000161623708640455236600000012144856532784437944_);}
	.st1{fill:#FFFFFF;filter:url(#Adobe_OpacityMaskFilter);}
	.st2{mask:url(#mask0_584_2398_00000172440464733747022780000005585129471450158007_);}
	.st3{fill:#BED630;}
	.st4{fill:#678442;}
</style>
<g>
	<defs>
		<rect id="SVGID_1_" y="0" width="185" height="38"/>
	</defs>
	<clipPath id="SVGID_00000101815178949640865970000007113681130616782522_">
		<use xlink:href="#SVGID_1_"  style="overflow:visible;"/>
	</clipPath>
	<g style="clip-path:url(#SVGID_00000101815178949640865970000007113681130616782522_);">
		<defs>
			<filter id="Adobe_OpacityMaskFilter" filterUnits="userSpaceOnUse" x="117.9" y="0.5" width="46.7" height="45.5">
				<feColorMatrix  type="matrix" values="1 0 0 0 0  0 1 0 0 0  0 0 1 0 0  0 0 0 1 0"/>
			</filter>
		</defs>
		
			<mask maskUnits="userSpaceOnUse" x="117.9" y="0.5" width="46.7" height="45.5" id="mask0_584_2398_00000172440464733747022780000005585129471450158007_">
			<path class="st1" d="M146.1,48.8h22.3v-61h-22.3V48.8z"/>
		</mask>
		<g class="st2">
			<path class="st3" d="M164.5,12.2C164.5,12.2,164.5,12.1,164.5,12.2c-0.1-0.2-0.1-0.4-0.2-0.6c-0.8-0.7-1.6-1.5-2.5-2.2
				c-0.8-0.6-1.2-1.3-1.5-2.1c-0.2-0.6-0.3-1.2-1-1.7c-0.1-0.1-0.1-0.2-0.1-0.3c-0.1-0.6-0.4-0.5-0.9-0.5c0,0-0.1-0.1-0.1-0.1
				c-0.1-0.2-0.3-0.4-0.5-0.6c-0.2-0.2-0.3-0.4-0.5-0.6c-0.2-0.2-0.4-0.4-0.6-0.6c-0.4-0.3-0.8-0.6-1.2-0.8c-0.9-0.6-2-1-3.2-1.3
				c-0.3-0.1-0.6-0.2-0.9-0.2c-0.1,0-0.4,0-0.4,0.1c0,0.2,0,0.2,0.2,0.3c0.2,0.1,0.5,0.2,0.7,0.3c0.3,0.1,0.5,0.2,0.7,0.4
				c0.5,0.3,1,0.6,1.4,1c0.2,0.2,0.4,0.3,0.6,0.5c0.2,0.2,0.3,0.4,0.4,0.6c-0.4-0.3-0.8-0.6-1.2-0.8c-0.4-0.2-0.8-0.5-1.3-0.7
				c-0.5-0.2-1.1-0.4-1.6-0.5c-0.6-0.1-1.2-0.3-1.8-0.4c-0.3,0-0.6-0.1-1-0.2c-0.3-0.1-0.6-0.1-0.8,0c-0.3,0.2,0.2,0.4,0.4,0.4
				c0.3,0.1,0.5,0.1,0.8,0.2c0.3,0.1,0.6,0.1,0.8,0.2c0.3,0.1,0.7,0.3,1,0.4c0.3,0.1,0.5,0.3,0.7,0.4c0.2,0.1,0.4,0.3,0.6,0.4
				c0.4,0.3,0.8,0.6,1.1,1c0.3,0.4,0.5,0.7,0.7,1.1c-0.5,0.2-0.9,0.3-1.4,0.5c-0.7,0.3-1.3,0.8-2,1.2c-0.2,0.1-0.4,0.3-0.5,0.5
				c-0.4,0.8-0.6,1.6-1.5,2.2c-0.5,0.4-1,0.8-1.4,1.3c-0.1,0.1-0.2,0.3-0.2,0.5c0,0.7,0,1.4,0,2.1c0,0.2-0.1,0.4-0.4,0.5
				c-1.2,0.3-2,0.9-2.6,1.7c0,0,0,0,0,0.1c-0.2,0.1-0.3,0.2-0.5,0.3c-0.6,0.2-1.3,0.4-1.8,0.6c-1.9,0.8-3.7,1.6-5.5,2.4
				c-0.2,0.1-0.4,0.2-0.5,0.2c-2.1,0.5-4.2,1-6.3,1.6c-1.7,0.5-3.6,0.7-5,1.6c-0.4,0.2-0.9,0.4-1.1,0.7c-0.4,0.7-1.1,1.2-1.9,1.6
				c-0.3,0.2-0.6,0.3-0.9,0.5c-0.1,0.1-0.3,0.2-0.3,0.3c-0.2,0.7-0.7,1.3-1.2,1.9c-0.1,0.2-0.2,0.4-0.3,0.6c-0.1,0.3,0,0.6-0.1,0.9
				c-0.2,0.5-0.1,0.9,0.1,1.4c0.3,0.6,0.6,1.3,0.8,1.9c0.1,0.4,0.2,0.9,0.3,1.4c0.3-0.6,0.6-1.2,0.9-1.8c0.3,0.3,0.6,0.5,0.9,0.8
				c0.6,0.8,0.5,1.6,0.3,2.4c-0.2,0.6-0.4,1.1-0.5,1.7c-0.1,0.8,0.2,1.5,0.5,2.2c0.1,0.2,0.2,0.3,0.3,0.5c0.7,0.6,1.4,1.2,2.2,1.8
				c1,0.8,1.9,1.5,2.5,2.5c0.2,0.3,0.4,0.6,0.6,0.9c0.1,0.1,0.3,0.3,0.5,0.4c0.6,0.2,1.1,0.6,1.3,1l1.4-2.4c-0.7-0.5-1.8-0.9-2-1.7
				c0,0,0-0.1-0.1-0.1c-0.8-0.9-0.6-1.8,0-2.8c0.4-0.5,0.6-1.1,1-1.7c0,0,0.1,0,0.1,0c0.1,0.3,0.1,0.5,0.2,0.8
				c0.1,0.8,0.2,1.6,0.4,2.4c0.2,0.6,0.6,1.2,0.9,1.8c0.1,0.2,0.3,0.4,0,0.7c-0.1,0.1-0.1,0.1-0.1,0.2l6.2-0.5l4,0.2l3.1,3.1
				c0-0.7-0.5-1.2-1.1-1.7c-0.1-0.1-0.1-0.1-0.1-0.1c0,0,0-0.1,0-0.2c0,0-0.2-0.3-0.2-0.7c0-0.2-0.1-0.4,0.1-0.7
				c0.6-0.7,0.7-1,0.8-1.1c0.7-1.5,1.5-3,2.2-4.5c0.1-0.1,0.2-0.3,0.3-0.4c0.6-0.5,1.3-1,1.5-1.8c0.2-0.9,0.8-1.6,1.5-2.4
				c0.1-0.1,0.2-0.2,0.4-0.3c0.9-0.3,1.4-0.8,1.6-1.5c0-0.1,0.1-0.3,0.2-0.4c0.5-1.2,1.2-2.3,1.3-3.6c0.1-1.5,2.3-2.7,2.7-4.3
				c0.2-0.9-0.5-1.9-0.2-2.8c0.5-1.1,1-2.3,1.4-3.4c0.1-0.2,0.1-0.5,0.1-0.7c-0.1-0.4-0.1-0.8-0.3-1.1c-0.2-0.6,0.1-1,0.4-1.5
				c0.6,0.2,1.1,0.4,1.6,0.6c0.8,0.4,1.6,0.5,2.6,0.2c0.2,0,0.5,0,0.7,0.1c0.5,0.3,1.4,0.3,2.1,0.1C164.3,13.6,164.8,13,164.5,12.2
				L164.5,12.2z M137.5,37c-1.1,1.4-2,2.9-2.7,4.4c-0.2,0.5-0.7,0.8-1.2,1.1c-0.4-0.3-0.8-0.6-0.8-1c-0.1-1-0.3-2.1-0.3-3.1
				c0-0.9,0-1.8,0-2.7c0-0.1,0.1-0.2,0.1-0.4c0.4-0.6,0.9-1.2,1.3-1.8c0.1-0.1,0.2-0.2,0.3-0.2c1.4-0.1,2.8-0.2,4.2-0.4
				c0.1,0,0.1,0,0.2,0c0.1,0.5,0.3,1.1-0.2,1.6c-0.6,0.6-0.7,1.3-0.9,2C137.7,36.7,137.6,36.8,137.5,37z M144.7,32.1
				c-0.7,1.8-1.4,3.6-2.1,5.4c0,0.1-0.1,0.2-0.2,0.3c-0.9,1-1.5,2-2.1,3.1c0,0.1-0.6,1.3-0.7,1.4c-0.3-0.2-0.9-0.7-1.2-0.9
				c-0.2-0.2-0.1-0.9-0.1-1.2c0-0.1,0.6-0.6,0.6-0.7c0.3-0.7,0.6-1.4,1.1-2.1c0.3-0.4,0.8-0.8,1.2-1.2c0.2-0.2,0.3-0.4,0.4-0.6
				c0.4-1.1,0.8-2.3,1.2-3.4c0.1-0.2,0.2-0.4,0.5-0.4c0.5,0,0.9-0.1,1.5-0.2C144.8,31.7,144.8,31.9,144.7,32.1L144.7,32.1z"/>
		</g>
		<path class="st4" d="M3.9,23.2l-2.7-9.8H4L5.5,20h0.1l1.6-6.6h2.7l1.6,6.6h0.1l1.5-6.6h2.7l-2.7,9.8h-2.9L8.6,17H8.4l-1.7,6.2H3.9
			z M17.3,23.2v-9.8H20v9.8H17.3z M18.6,12.1c-0.4,0-0.8-0.1-1-0.4c-0.3-0.3-0.4-0.6-0.4-1c0-0.4,0.1-0.7,0.4-1
			c0.3-0.3,0.6-0.4,1-0.4s0.8,0.1,1,0.4c0.3,0.3,0.4,0.6,0.4,1c0,0.4-0.1,0.7-0.4,1C19.4,12,19,12.1,18.6,12.1z M27.4,13.4v2h-5.9
			v-2H27.4z M22.8,11.1h2.7v9.2c0,0.3,0,0.4,0.1,0.6c0.1,0.1,0.2,0.2,0.3,0.3c0.1,0.1,0.3,0.1,0.5,0.1c0.1,0,0.3,0,0.4,0
			c0.1,0,0.2,0,0.3-0.1l0.4,2c-0.1,0-0.3,0.1-0.6,0.1c-0.2,0.1-0.5,0.1-0.9,0.1c-0.7,0-1.2-0.1-1.7-0.3c-0.5-0.2-0.9-0.5-1.1-0.9
			c-0.3-0.4-0.4-1-0.4-1.6V11.1z M32.1,17.5v5.7h-2.7V10.1H32v5h0.1c0.2-0.6,0.6-1,1.1-1.4c0.5-0.3,1.1-0.5,1.9-0.5
			c0.7,0,1.3,0.1,1.8,0.4c0.5,0.3,0.9,0.7,1.2,1.3c0.3,0.5,0.4,1.2,0.4,2v6.3h-2.7v-5.8c0-0.6-0.1-1.1-0.5-1.4
			c-0.3-0.3-0.7-0.5-1.3-0.5c-0.4,0-0.7,0.1-1,0.2c-0.3,0.2-0.5,0.4-0.7,0.7C32.2,16.8,32.1,17.1,32.1,17.5z M53.5,14.4
			c-0.1-0.3-0.2-0.6-0.4-0.8c-0.2-0.2-0.4-0.4-0.6-0.6c-0.2-0.2-0.5-0.3-0.8-0.4c-0.3-0.1-0.6-0.1-1-0.1c-0.7,0-1.3,0.2-1.8,0.5
			c-0.5,0.3-0.9,0.8-1.2,1.5c-0.3,0.6-0.4,1.4-0.4,2.3c0,0.9,0.1,1.7,0.4,2.3s0.7,1.1,1.2,1.5c0.5,0.3,1.1,0.5,1.8,0.5
			c0.6,0,1.2-0.1,1.6-0.3c0.4-0.2,0.8-0.5,1-1c0.2-0.4,0.4-0.9,0.4-1.5l0.6,0.1h-3.4v-2.1h5.5v1.6c0,1.2-0.2,2.1-0.7,3
			c-0.5,0.8-1.2,1.5-2,1.9c-0.9,0.4-1.8,0.7-2.9,0.7c-1.2,0-2.3-0.3-3.2-0.8c-0.9-0.5-1.7-1.3-2.2-2.3c-0.5-1-0.8-2.2-0.8-3.6
			c0-1.1,0.2-2,0.5-2.8c0.3-0.8,0.7-1.5,1.3-2.1c0.6-0.6,1.2-1,1.9-1.3c0.7-0.3,1.5-0.5,2.4-0.5c0.7,0,1.4,0.1,2.1,0.3
			c0.6,0.2,1.2,0.5,1.7,0.9c0.5,0.4,0.9,0.9,1.2,1.4c0.3,0.5,0.5,1.1,0.6,1.8H53.5z M58.5,23.2v-9.8h2.6v1.7h0.1
			c0.2-0.6,0.5-1.1,0.9-1.4c0.4-0.3,0.9-0.5,1.5-0.5c0.1,0,0.3,0,0.4,0c0.2,0,0.3,0,0.4,0.1v2.4c-0.1,0-0.3-0.1-0.5-0.1
			c-0.2,0-0.4,0-0.6,0c-0.4,0-0.8,0.1-1.1,0.3c-0.3,0.2-0.6,0.4-0.7,0.7c-0.2,0.3-0.3,0.7-0.3,1.1v5.6H58.5z M69.8,23.4
			c-1,0-1.9-0.2-2.6-0.6c-0.7-0.4-1.3-1-1.7-1.8c-0.4-0.8-0.6-1.7-0.6-2.7c0-1,0.2-1.9,0.6-2.7c0.4-0.8,0.9-1.4,1.7-1.8
			c0.7-0.4,1.6-0.6,2.5-0.6c0.6,0,1.3,0.1,1.8,0.3c0.6,0.2,1.1,0.5,1.5,0.9c0.4,0.4,0.8,0.9,1,1.6c0.2,0.6,0.4,1.4,0.4,2.2V19h-8.3
			v-1.7h5.7c0-0.4-0.1-0.7-0.3-1c-0.2-0.3-0.4-0.5-0.7-0.7c-0.3-0.2-0.6-0.3-1-0.3c-0.4,0-0.8,0.1-1.1,0.3c-0.3,0.2-0.6,0.4-0.7,0.8
			c-0.2,0.3-0.3,0.7-0.3,1.1V19c0,0.5,0.1,0.9,0.3,1.3c0.2,0.4,0.4,0.6,0.8,0.8c0.3,0.2,0.7,0.3,1.2,0.3c0.3,0,0.6,0,0.8-0.1
			c0.3-0.1,0.5-0.2,0.6-0.4c0.2-0.2,0.3-0.4,0.4-0.6l2.5,0.2c-0.1,0.6-0.4,1.1-0.8,1.6c-0.4,0.4-0.9,0.8-1.5,1
			C71.4,23.3,70.6,23.4,69.8,23.4z M80.6,23.4c-1,0-1.9-0.2-2.6-0.6c-0.7-0.4-1.3-1-1.7-1.8c-0.4-0.8-0.6-1.7-0.6-2.7
			c0-1,0.2-1.9,0.6-2.7c0.4-0.8,0.9-1.4,1.7-1.8c0.7-0.4,1.6-0.6,2.5-0.6c0.6,0,1.3,0.1,1.8,0.3c0.6,0.2,1.1,0.5,1.5,0.9
			c0.4,0.4,0.8,0.9,1,1.6c0.2,0.6,0.4,1.4,0.4,2.2V19h-8.3v-1.7h5.7c0-0.4-0.1-0.7-0.3-1c-0.2-0.3-0.4-0.5-0.7-0.7
			c-0.3-0.2-0.6-0.3-1-0.3c-0.4,0-0.8,0.1-1.1,0.3c-0.3,0.2-0.6,0.4-0.7,0.8c-0.2,0.3-0.3,0.7-0.3,1.1V19c0,0.5,0.1,0.9,0.3,1.3
			c0.2,0.4,0.4,0.6,0.8,0.8c0.3,0.2,0.7,0.3,1.2,0.3c0.3,0,0.6,0,0.8-0.1c0.3-0.1,0.5-0.2,0.6-0.4c0.2-0.2,0.3-0.4,0.4-0.6l2.5,0.2
			c-0.1,0.6-0.4,1.1-0.8,1.6c-0.4,0.4-0.9,0.8-1.5,1C82.1,23.3,81.4,23.4,80.6,23.4z M89.6,17.5v5.7h-2.7v-9.8h2.6v1.7h0.1
			c0.2-0.6,0.6-1,1.1-1.4c0.5-0.3,1.1-0.5,1.9-0.5c0.7,0,1.3,0.1,1.8,0.4c0.5,0.3,0.9,0.7,1.2,1.3c0.3,0.5,0.4,1.2,0.4,2v6.3h-2.7
			v-5.8c0-0.6-0.1-1.1-0.5-1.4c-0.3-0.3-0.7-0.5-1.3-0.5c-0.4,0-0.7,0.1-1,0.2c-0.3,0.2-0.5,0.4-0.7,0.7
			C89.7,16.8,89.6,17.1,89.6,17.5z M111,14.4c-0.1-0.3-0.2-0.6-0.4-0.8c-0.2-0.2-0.4-0.4-0.6-0.6c-0.2-0.2-0.5-0.3-0.8-0.4
			c-0.3-0.1-0.6-0.1-1-0.1c-0.7,0-1.3,0.2-1.8,0.5c-0.5,0.3-0.9,0.8-1.2,1.5c-0.3,0.6-0.4,1.4-0.4,2.3c0,0.9,0.1,1.7,0.4,2.3
			s0.7,1.1,1.2,1.5c0.5,0.3,1.1,0.5,1.8,0.5c0.6,0,1.2-0.1,1.6-0.3c0.4-0.2,0.8-0.5,1-1c0.2-0.4,0.4-0.9,0.4-1.5l0.6,0.1h-3.4v-2.1
			h5.5v1.6c0,1.2-0.2,2.1-0.7,3c-0.5,0.8-1.2,1.5-2,1.9c-0.9,0.4-1.8,0.7-2.9,0.7c-1.2,0-2.3-0.3-3.2-0.8c-0.9-0.5-1.7-1.3-2.2-2.3
			c-0.5-1-0.8-2.2-0.8-3.6c0-1.1,0.2-2,0.5-2.8c0.3-0.8,0.7-1.5,1.3-2.1c0.6-0.6,1.2-1,1.9-1.3c0.7-0.3,1.5-0.5,2.4-0.5
			c0.7,0,1.4,0.1,2.1,0.3c0.6,0.2,1.2,0.5,1.7,0.9c0.5,0.4,0.9,0.9,1.2,1.4c0.3,0.5,0.5,1.1,0.6,1.8H111z M120.4,23.4
			c-1,0-1.9-0.2-2.6-0.6c-0.7-0.4-1.3-1-1.7-1.8c-0.4-0.8-0.6-1.6-0.6-2.7c0-1,0.2-1.9,0.6-2.7c0.4-0.8,0.9-1.4,1.7-1.8
			c0.7-0.4,1.6-0.6,2.6-0.6c1,0,1.8,0.2,2.6,0.6c0.7,0.4,1.3,1,1.7,1.8c0.4,0.8,0.6,1.6,0.6,2.7c0,1-0.2,1.9-0.6,2.7
			c-0.4,0.8-1,1.4-1.7,1.8C122.2,23.2,121.4,23.4,120.4,23.4z M120.4,21.3c0.5,0,0.8-0.1,1.1-0.4c0.3-0.3,0.5-0.6,0.7-1.1
			c0.2-0.4,0.2-1,0.2-1.5c0-0.6-0.1-1.1-0.2-1.5c-0.2-0.4-0.4-0.8-0.7-1.1c-0.3-0.3-0.7-0.4-1.1-0.4c-0.5,0-0.8,0.1-1.2,0.4
			c-0.3,0.3-0.5,0.6-0.7,1.1c-0.2,0.4-0.2,1-0.2,1.5c0,0.6,0.1,1.1,0.2,1.5c0.2,0.4,0.4,0.8,0.7,1.1
			C119.5,21.2,119.9,21.3,120.4,21.3z M129.8,23.4c-0.6,0-1.2-0.1-1.7-0.3c-0.5-0.2-0.9-0.5-1.2-1c-0.3-0.4-0.4-1-0.4-1.6
			c0-0.5,0.1-1,0.3-1.4c0.2-0.4,0.5-0.7,0.8-0.9c0.3-0.2,0.7-0.4,1.2-0.5c0.4-0.1,0.9-0.2,1.4-0.2c0.6-0.1,1-0.1,1.4-0.2
			c0.3-0.1,0.6-0.1,0.8-0.2c0.2-0.1,0.2-0.3,0.2-0.5v0c0-0.4-0.1-0.7-0.4-0.9c-0.3-0.2-0.6-0.3-1.1-0.3c-0.5,0-0.9,0.1-1.2,0.3
			c-0.3,0.2-0.5,0.5-0.6,0.8l-2.5-0.2c0.1-0.6,0.4-1.1,0.8-1.5c0.4-0.4,0.9-0.8,1.5-1c0.6-0.2,1.3-0.4,2.1-0.4
			c0.5,0,1.1,0.1,1.6,0.2c0.5,0.1,0.9,0.3,1.3,0.6c0.4,0.3,0.7,0.6,0.9,1c0.2,0.4,0.3,0.9,0.3,1.5v6.6h-2.6v-1.4h-0.1
			c-0.2,0.3-0.4,0.6-0.6,0.8c-0.3,0.2-0.6,0.4-1,0.5C130.7,23.3,130.3,23.4,129.8,23.4z M130.6,21.5c0.4,0,0.8-0.1,1.1-0.2
			c0.3-0.2,0.5-0.4,0.7-0.7c0.2-0.3,0.3-0.6,0.3-0.9v-1c-0.1,0.1-0.2,0.1-0.4,0.2c-0.1,0-0.3,0.1-0.5,0.1c-0.2,0-0.4,0.1-0.6,0.1
			c-0.2,0-0.3,0-0.5,0.1c-0.3,0-0.6,0.1-0.8,0.2c-0.2,0.1-0.4,0.2-0.6,0.4c-0.1,0.2-0.2,0.4-0.2,0.6c0,0.4,0.1,0.7,0.4,0.9
			C129.8,21.4,130.1,21.5,130.6,21.5z M142.6,13.4v2h-5.9v-2H142.6z M138.1,11.1h2.7v9.2c0,0.3,0,0.4,0.1,0.6
			c0.1,0.1,0.2,0.2,0.3,0.3c0.1,0.1,0.3,0.1,0.5,0.1c0.1,0,0.3,0,0.4,0c0.1,0,0.2,0,0.3-0.1l0.4,2c-0.1,0-0.3,0.1-0.6,0.1
			c-0.2,0.1-0.5,0.1-0.9,0.1c-0.7,0-1.2-0.1-1.7-0.3c-0.5-0.2-0.9-0.5-1.1-0.9c-0.3-0.4-0.4-1-0.4-1.6V11.1z"/>
	</g>
</g>
</svg>
