<svg width="28" height="18" viewBox="0 0 28 18" fill="none" xmlns="http://www.w3.org/2000/svg">
<path d="M23.9947 0.500098H3.80039C2.89865 0.500098 2.03385 0.858311 1.39623 1.49593C0.758604 2.13356 0.400391 2.99836 0.400391 3.9001V14.1001C0.400391 15.0018 0.758604 15.8666 1.39623 16.5043C2.03385 17.1419 2.89865 17.5001 3.80039 17.5001H24.2004C25.1021 17.5001 25.9669 17.1419 26.6046 16.5043C27.2422 15.8666 27.6004 15.0018 27.6004 14.1001V4.1058L20.0524 11.6538C19.5712 12.1181 18.927 12.3748 18.2584 12.3687C17.5898 12.3626 16.9503 12.0941 16.4778 11.6211C16.0052 11.148 15.7373 10.5083 15.7318 9.83974C15.7263 9.17113 15.9837 8.52711 16.4484 8.0464L23.9947 0.500098ZM3.80039 6.4501C3.80039 6.22466 3.88994 6.00846 4.04935 5.84906C4.20876 5.68965 4.42496 5.6001 4.65039 5.6001H8.05039C8.27583 5.6001 8.49203 5.68965 8.65143 5.84906C8.81084 6.00846 8.90039 6.22466 8.90039 6.4501C8.90039 6.67553 8.81084 6.89173 8.65143 7.05114C8.49203 7.21055 8.27583 7.3001 8.05039 7.3001H4.65039C4.42496 7.3001 4.20876 7.21055 4.04935 7.05114C3.88994 6.89173 3.80039 6.67553 3.80039 6.4501ZM3.80039 11.5501C3.80039 11.3247 3.88994 11.1085 4.04935 10.9491C4.20876 10.7897 4.42496 10.7001 4.65039 10.7001H12.3004C12.5258 10.7001 12.742 10.7897 12.9014 10.9491C13.0608 11.1085 13.1504 11.3247 13.1504 11.5501C13.1504 11.7755 13.0608 11.9917 12.9014 12.1511C12.742 12.3105 12.5258 12.4001 12.3004 12.4001H4.65039C4.42496 12.4001 4.20876 12.3105 4.04935 12.1511C3.88994 11.9917 3.80039 11.7755 3.80039 11.5501ZM27.3522 1.9519C27.5118 1.79229 27.6015 1.57582 27.6015 1.3501C27.6015 1.12438 27.5118 0.907905 27.3522 0.748297C27.1926 0.58869 26.9761 0.499023 26.7504 0.499023C26.5247 0.499023 26.3082 0.58869 26.1486 0.748297L17.6486 9.2483C17.489 9.4079 17.3993 9.62438 17.3993 9.8501C17.3993 10.0758 17.489 10.2923 17.6486 10.4519C17.8082 10.6115 18.0247 10.7012 18.2504 10.7012C18.4761 10.7012 18.6926 10.6115 18.8522 10.4519L27.3522 1.9519Z" fill="#646262"/>
</svg>
