<svg width="24" height="24" viewBox="0 0 24 24" fill="none" xmlns="http://www.w3.org/2000/svg">
<rect x="0.454418" y="0.454418" width="23.0912" height="23.0912" rx="4.08976" fill="white"/>
<rect x="0.454418" y="0.454418" width="23.0912" height="23.0912" rx="4.08976" stroke="#E3E3E3" stroke-width="0.908836"/>
<path d="M5.99977 18.3996H8.39977V9.51961H5.99977V18.3996ZM7.19977 5.59961C6.39977 5.59961 5.75977 6.23961 5.75977 7.03961C5.75977 7.83961 6.39977 8.47961 7.19977 8.47961C7.99977 8.47961 8.63977 7.83961 8.63977 7.03961C8.63977 6.23961 7.99977 5.59961 7.19977 5.59961ZM12.4798 10.8796V9.51961H10.0798V18.3996H12.4798V13.8396C12.4798 11.2796 15.7598 11.1196 15.7598 13.8396V18.3996H18.1598V12.9596C18.1598 8.63961 13.5998 8.79961 12.4798 10.8796Z" fill="black"/>
</svg>
