<svg width="24" height="24" viewBox="0 0 24 24" fill="none" xmlns="http://www.w3.org/2000/svg">
<rect x="0.454418" y="0.454418" width="23.0912" height="23.0912" rx="4.08976" fill="white"/>
<rect x="0.454418" y="0.454418" width="23.0912" height="23.0912" rx="4.08976" stroke="#E3E3E3" stroke-width="0.908836"/>
<path d="M10.0108 12.8812L13.995 15.2028M13.9892 8.79783L10.0108 11.1195M17.25 7.91699C17.25 8.88349 16.4665 9.66699 15.5 9.66699C14.5335 9.66699 13.75 8.88349 13.75 7.91699C13.75 6.95049 14.5335 6.16699 15.5 6.16699C16.4665 6.16699 17.25 6.95049 17.25 7.91699ZM10.25 12.0003C10.25 12.9668 9.4665 13.7503 8.5 13.7503C7.5335 13.7503 6.75 12.9668 6.75 12.0003C6.75 11.0338 7.5335 10.2503 8.5 10.2503C9.4665 10.2503 10.25 11.0338 10.25 12.0003ZM17.25 16.0837C17.25 17.0502 16.4665 17.8337 15.5 17.8337C14.5335 17.8337 13.75 17.0502 13.75 16.0837C13.75 15.1172 14.5335 14.3337 15.5 14.3337C16.4665 14.3337 17.25 15.1172 17.25 16.0837Z" stroke="black" stroke-width="1.16667" stroke-linecap="round" stroke-linejoin="round"/>
</svg>
