<svg width="38" height="38" viewBox="0 0 38 38" fill="none" xmlns="http://www.w3.org/2000/svg">
<rect x="0.719495" y="0.719495" width="36.561" height="36.561" rx="6.47546" fill="white"/>
<rect x="0.719495" y="0.719495" width="36.561" height="36.561" rx="6.47546" stroke="#E3E3E3" stroke-width="1.43899"/>
<path d="M23.9191 19.3363C24.1831 19.1203 26.9431 16.5043 27.4711 15.5443C27.4711 15.5443 28.8871 13.8163 27.4711 12.5443C27.4711 12.5443 25.4311 10.8163 23.9191 13.1683C22.4311 10.8163 20.3911 12.5203 20.3911 12.5203C18.9751 13.7923 20.3911 15.5203 20.3911 15.5203C20.9191 16.4803 23.5831 19.0243 23.9191 19.3363Z" fill="#4C8C2B"/>
<path d="M28.6967 21.208L24.0887 22.504V22.528C24.2087 22.984 24.1367 23.488 23.8967 23.896C23.6567 24.352 23.2487 24.664 22.7447 24.808C22.2647 24.952 21.7367 24.88 21.2807 24.64L18.6167 23.152L18.8567 22.696L21.5207 24.184C21.8567 24.376 22.2167 24.4 22.5767 24.304C22.9367 24.208 23.2247 23.968 23.4167 23.632C23.5127 23.464 23.5607 23.272 23.5847 23.08C23.6567 22.624 23.4407 22.144 23.0327 21.928L16.5767 18.328C16.5767 18.328 15.9047 17.872 14.9927 18.136C14.9927 18.136 14.9927 18.136 14.9687 18.136C14.8007 18.16 7.86473 20.152 7.57673 20.224H7.55273L9.01673 25.24L13.6487 23.92C14.1287 24.208 17.6567 26.392 18.0887 26.656C18.8807 27.112 19.8407 26.872 20.0567 26.8C20.0807 26.8 29.5127 24.112 29.5127 24.112C30.1607 23.92 30.7127 23.056 30.4487 22.168C30.2567 21.424 29.4647 20.992 28.6967 21.208Z" fill="#4C8C2B"/>
</svg>
