<?xml version="1.0" encoding="utf-8"?>
<svg version="1.1" id="Layer_1" xmlns="http://www.w3.org/2000/svg" xmlns:xlink="http://www.w3.org/1999/xlink" x="0px" y="0px"
     width="56px" height="56px" viewBox="0 0 1200 1200" style="enable-background:new 0 0 1200 1200;" xml:space="preserve">
    <path d="M565.2,668.1h69.7v452.4h-69.7V668.1z"/>
    <path d="M565.2,79.5h69.7v76.2h-69.7V79.5z"/>
    <path d="M973.4,205.7H226.6v412.4h746.9L973.4,205.7z M338.4,284.3H588c8.9,0,17.2,4.8,21.7,12.5c4.5,7.7,4.5,17.3,0,25
        c-4.5,7.7-12.7,12.5-21.7,12.5H338.4c-8.9,0-17.2-4.8-21.7-12.5c-4.5-7.7-4.5-17.3,0-25C321.2,289.1,329.5,284.3,338.4,284.3
        L338.4,284.3z M861.6,539.5H338.4c-8.9,0-17.2-4.8-21.7-12.5c-4.5-7.7-4.5-17.3,0-25c4.5-7.7,12.7-12.5,21.7-12.5h523.2
        c8.9,0,17.2,4.8,21.7,12.5c4.5,7.7,4.5,17.3,0,25C878.8,534.7,870.6,539.5,861.6,539.5z M861.6,436.9H338.4
        c-8.9,0-17.2-4.8-21.7-12.5c-4.5-7.7-4.5-17.3,0-25c4.5-7.7,12.7-12.5,21.7-12.5h523.2c8.9,0,17.2,4.8,21.7,12.5
        c4.5,7.7,4.5,17.3,0,25C878.8,432.1,870.6,436.9,861.6,436.9z"/>
</svg>
