<?xml version="1.0" encoding="utf-8"?>
<svg version="1.1" id="Layer_1" xmlns="http://www.w3.org/2000/svg" xmlns:xlink="http://www.w3.org/1999/xlink" x="0px" y="0px"
	 width="56px" height="56px" viewBox="0 0 1200 1200" style="enable-background:new 0 0 1200 1200;" xml:space="preserve">
<path d="M787.5,487.5c0,62-50.5,112.5-112.5,112.5H525V375h150C737,375,787.5,425.5,787.5,487.5z M1125,600
	c0,289.5-235.5,525-525,525S75,889.5,75,600S310.5,75,600,75S1125,310.5,1125,600z M862.5,487.5C862.5,384.1,778.4,300,675,300
	H487.5c-20.7,0-37.5,16.8-37.5,37.5V900h75V675h150C778.4,675,862.5,590.9,862.5,487.5z"/>
</svg>
