<svg width="108" height="33" viewBox="0 0 108 33" fill="none" xmlns="http://www.w3.org/2000/svg">
<path d="M0 3C0 1.34315 1.34315 0 3 0H105C106.657 0 108 1.34315 108 3V22C108 23.6569 106.657 25 105 25H0V3Z" fill="#F47E10"/>
<path d="M23.8679 12.688H20.7239V16H19.2359V8.08H20.7239V11.368H23.8679V8.08H25.3559V16H23.8679V12.688ZM26.8899 8.08H28.3899V16H26.8899V8.08ZM32.6479 11.944L35.7439 16H33.9499L31.3159 12.46V16H29.8159V8.08H31.3159V11.47L33.7579 8.08H35.4559L32.6479 11.944ZM36.5813 8.08H38.0813V16H36.5813V8.08ZM40.9833 9.466L41.0853 9.484V16H39.5913V8.08H41.6553L45.2073 14.584L45.1053 14.608V8.08H46.5993V16H44.5233L40.9833 9.466ZM51.6823 11.62H55.7023V12.094C55.7023 12.658 55.6063 13.186 55.4143 13.678C55.2263 14.166 54.9563 14.596 54.6043 14.968C54.2523 15.336 53.8343 15.624 53.3503 15.832C52.8703 16.04 52.3403 16.144 51.7603 16.144C51.1643 16.144 50.6203 16.038 50.1283 15.826C49.6363 15.614 49.2123 15.32 48.8563 14.944C48.5003 14.568 48.2243 14.132 48.0283 13.636C47.8363 13.136 47.7403 12.602 47.7403 12.034C47.7403 11.47 47.8363 10.94 48.0283 10.444C48.2243 9.944 48.5003 9.508 48.8563 9.136C49.2123 8.76 49.6363 8.466 50.1283 8.254C50.6203 8.042 51.1643 7.936 51.7603 7.936C52.2203 7.936 52.6303 7.986 52.9903 8.086C53.3503 8.186 53.6643 8.322 53.9323 8.494C54.2043 8.662 54.4383 8.85 54.6343 9.058C54.8343 9.262 55.0003 9.468 55.1323 9.676L53.7283 10.36C53.5363 10.08 53.2803 9.84 52.9603 9.64C52.6443 9.44 52.2443 9.34 51.7603 9.34C51.4003 9.34 51.0683 9.412 50.7643 9.556C50.4643 9.696 50.2043 9.89 49.9843 10.138C49.7683 10.386 49.6003 10.674 49.4803 11.002C49.3603 11.326 49.3003 11.67 49.3003 12.034C49.3003 12.402 49.3603 12.748 49.4803 13.072C49.6003 13.396 49.7683 13.684 49.9843 13.936C50.2043 14.184 50.4643 14.378 50.7643 14.518C51.0683 14.658 51.4003 14.728 51.7603 14.728C52.0883 14.728 52.3863 14.68 52.6543 14.584C52.9223 14.488 53.1543 14.352 53.3503 14.176C53.5503 14 53.7083 13.794 53.8243 13.558C53.9403 13.318 54.0063 13.06 54.0223 12.784H51.6823V11.62ZM61.4359 9.406H59.4499V8.08H64.9159V9.406H62.9359V16H61.4359V9.406ZM65.9228 8.08H68.9708C69.4188 8.08 69.8208 8.174 70.1768 8.362C70.5328 8.546 70.8148 8.816 71.0228 9.172C71.2348 9.524 71.3408 9.95 71.3408 10.45C71.3408 10.946 71.2488 11.354 71.0648 11.674C70.8808 11.99 70.6588 12.228 70.3988 12.388C70.1428 12.548 69.9048 12.64 69.6848 12.664L71.6288 16H69.9368L68.1788 12.778H67.4168V16H65.9228V8.08ZM67.4168 11.722H68.4368C68.8168 11.722 69.1388 11.628 69.4028 11.44C69.6708 11.252 69.8048 10.936 69.8048 10.492C69.8048 10.048 69.6728 9.736 69.4088 9.556C69.1448 9.372 68.8248 9.28 68.4488 9.28H67.4168V11.722ZM74.8004 8.08H76.3064L79.3544 16H77.7584L77.1404 14.29H73.9724L73.3424 16H71.7404L74.8004 8.08ZM74.4644 12.964H76.6484L75.5624 9.892H75.5444L74.4644 12.964ZM80.1516 8.08H81.6516V16H80.1516V8.08ZM83.1857 8.08H84.6857V14.674H87.6557V16H83.1857V8.08Z" fill="white"/>
<path d="M7 32.5L0 25H7V32.5Z" fill="#B36E2F"/>
</svg>
