<svg width="108 " height="34" viewBox="0 0 108 34" fill="none" xmlns="http://www.w3.org/2000/svg">
<path d="M0 3.66602C0 2.00916 1.34315 0.666016 3 0.666016H105C106.657 0.666016 108 2.00916 108 3.66602V22.666C108 24.3229 106.657 25.666 105 25.666H0V3.66602Z" fill="#1061F4"/>
<path d="M17.9338 8.74602V16.666H16.4398V11.596L16.5118 10.444L16.2418 11.752L14.6878 16.102H13.2118L11.6638 11.752L11.3998 10.444L11.4658 11.596V16.666H9.96578V8.74602H12.0418L13.8538 14.392L13.9498 14.932L14.0458 14.392L15.8638 8.74602H17.9338ZM24.1745 8.74602H25.6745V13.63C25.6745 14.282 25.5445 14.846 25.2845 15.322C25.0285 15.798 24.6665 16.166 24.1985 16.426C23.7345 16.682 23.1865 16.81 22.5545 16.81C21.9185 16.81 21.3645 16.682 20.8925 16.426C20.4245 16.166 20.0605 15.798 19.8005 15.322C19.5445 14.846 19.4165 14.282 19.4165 13.63V8.74602H20.9105V13.552C20.9105 13.952 20.9785 14.294 21.1145 14.578C21.2545 14.858 21.4485 15.072 21.6965 15.22C21.9445 15.364 22.2305 15.436 22.5545 15.436C22.8745 15.436 23.1565 15.364 23.4005 15.22C23.6445 15.072 23.8345 14.858 23.9705 14.578C24.1065 14.294 24.1745 13.952 24.1745 13.552V8.74602ZM27.0528 8.74602H28.5528V15.34H31.5228V16.666H27.0528V8.74602ZM33.3578 10.072H31.3718V8.74602H36.8378V10.072H34.8578V16.666H33.3578V10.072ZM37.9407 8.74602H39.4407V16.666H37.9407V8.74602ZM41.0287 14.584V13.282H44.1187V14.584H41.0287ZM50.237 8.74602H51.737V13.63C51.737 14.282 51.607 14.846 51.347 15.322C51.091 15.798 50.729 16.166 50.261 16.426C49.797 16.682 49.249 16.81 48.617 16.81C47.981 16.81 47.427 16.682 46.955 16.426C46.487 16.166 46.123 15.798 45.863 15.322C45.607 14.846 45.479 14.282 45.479 13.63V8.74602H46.973V13.552C46.973 13.952 47.041 14.294 47.177 14.578C47.317 14.858 47.511 15.072 47.759 15.22C48.007 15.364 48.293 15.436 48.617 15.436C48.937 15.436 49.219 15.364 49.463 15.22C49.707 15.072 49.897 14.858 50.033 14.578C50.169 14.294 50.237 13.952 50.237 13.552V8.74602ZM55.8153 8.60202C56.2913 8.60202 56.7053 8.65602 57.0573 8.76402C57.4133 8.86802 57.6953 8.98002 57.9033 9.10002C58.1153 9.22002 58.2433 9.29802 58.2873 9.33402L57.5553 10.552C57.4913 10.5 57.3813 10.428 57.2253 10.336C57.0733 10.24 56.8893 10.156 56.6733 10.084C56.4573 10.008 56.2233 9.97002 55.9713 9.97002C55.6073 9.97002 55.3153 10.04 55.0953 10.18C54.8793 10.316 54.7713 10.514 54.7713 10.774C54.7713 10.95 54.8293 11.108 54.9453 11.248C55.0613 11.384 55.2313 11.512 55.4553 11.632C55.6833 11.752 55.9613 11.878 56.2893 12.01C56.5773 12.122 56.8513 12.252 57.1113 12.4C57.3753 12.548 57.6093 12.722 57.8133 12.922C58.0213 13.122 58.1853 13.354 58.3053 13.618C58.4293 13.882 58.4913 14.184 58.4913 14.524C58.4913 14.904 58.4133 15.236 58.2573 15.52C58.1053 15.804 57.8933 16.042 57.6213 16.234C57.3533 16.426 57.0453 16.57 56.6973 16.666C56.3493 16.762 55.9833 16.81 55.5993 16.81C55.0793 16.81 54.6113 16.75 54.1953 16.63C53.7833 16.506 53.4493 16.374 53.1933 16.234C52.9373 16.094 52.7873 16.004 52.7433 15.964L53.5113 14.698C53.5593 14.734 53.6493 14.792 53.7813 14.872C53.9173 14.952 54.0813 15.034 54.2733 15.118C54.4693 15.202 54.6813 15.274 54.9093 15.334C55.1413 15.394 55.3773 15.424 55.6173 15.424C56.0493 15.424 56.3753 15.334 56.5953 15.154C56.8153 14.974 56.9253 14.74 56.9253 14.452C56.9253 14.236 56.8553 14.046 56.7153 13.882C56.5753 13.718 56.3773 13.568 56.1213 13.432C55.8693 13.292 55.5673 13.15 55.2153 13.006C54.8633 12.858 54.5353 12.686 54.2313 12.49C53.9313 12.29 53.6893 12.046 53.5053 11.758C53.3213 11.466 53.2293 11.108 53.2293 10.684C53.2293 10.264 53.3473 9.89802 53.5833 9.58602C53.8233 9.27402 54.1393 9.03202 54.5313 8.86001C54.9273 8.68801 55.3553 8.60202 55.8153 8.60202ZM59.6656 8.74602H64.5796V10.072H61.1536V12.052H64.5316V13.336H61.1536V15.34H64.5796V16.666H59.6656V8.74602ZM70.682 10.072H68.696V8.74602H74.162V10.072H72.182V16.666H70.682V10.072ZM75.1689 8.74602H78.2169C78.6649 8.74602 79.0669 8.84002 79.4229 9.02802C79.7789 9.21202 80.0609 9.48202 80.2689 9.83802C80.4809 10.19 80.5869 10.616 80.5869 11.116C80.5869 11.612 80.4949 12.02 80.3109 12.34C80.1269 12.656 79.9049 12.894 79.6449 13.054C79.3889 13.214 79.1509 13.306 78.9309 13.33L80.8749 16.666H79.1829L77.4249 13.444H76.6629V16.666H75.1689V8.74602ZM76.6629 12.388H77.6829C78.0629 12.388 78.3849 12.294 78.6489 12.106C78.9169 11.918 79.0509 11.602 79.0509 11.158C79.0509 10.714 78.9189 10.402 78.6549 10.222C78.3909 10.038 78.0709 9.94602 77.6949 9.94602H76.6629V12.388ZM84.0465 8.74602H85.5525L88.6005 16.666H87.0045L86.3865 14.956H83.2185L82.5885 16.666H80.9865L84.0465 8.74602ZM83.7105 13.63H85.8945L84.8085 10.558H84.7905L83.7105 13.63ZM89.3977 8.74602H90.8977V16.666H89.3977V8.74602ZM92.4318 8.74602H93.9318V15.34H96.9018V16.666H92.4318V8.74602Z" fill="white"/>
<path d="M7 33.166L0 25.666H7V33.166Z" fill="#0A44AF"/>
</svg>
